<svg width="90" height="90" viewBox="0 0 90 90" fill="none" xmlns="http://www.w3.org/2000/svg">
<path d="M90 47.5539C90 42.3383 87.2655 37.5235 82.8986 34.8202C83.863 32.8106 84.3666 30.6076 84.3666 28.3549C84.3666 21.8739 76.3639 16.6221 71.1239 13.8788C70.5644 6.13178 64.0854 0 56.2018 0C51.743 0 47.6641 1.80088 44.8755 4.91133C42.0623 1.80123 38.0704 0 33.7982 0C28.6117 0 23.7043 2.78209 21.0115 7.2102C19.7684 9.25453 19.0264 11.5917 18.8701 13.9794C18.8692 13.9932 18.8673 14.007 18.8664 14.0208C18.5505 14.1817 18.1675 14.3831 17.6998 14.6357C16.5236 15.2706 14.7472 16.2986 12.9639 17.5899C8.09982 21.1117 5.63344 24.7335 5.63344 28.3549C5.63344 30.6076 6.13687 32.8106 7.10121 34.8202C2.73445 37.5235 0 42.3383 0 47.5539C0 52.5943 2.50189 57.2205 6.62678 59.9838C5.9741 61.6888 5.63344 63.5143 5.63344 65.344C5.63344 70.7518 8.48988 75.6519 13.1419 78.3222C15.0971 85.1367 22.8799 90 32.0377 90C36.7759 90 41.4142 88.6094 44.9902 86.1572C48.5439 88.6412 53.0924 90 57.9623 90C67.1201 90 74.903 85.1367 76.8581 78.3222C81.5103 75.652 84.3666 70.7518 84.3666 65.344C84.3666 63.5145 84.0259 61.689 83.3732 59.9838C87.4981 57.2205 90 52.5945 90 47.5539ZM32.0377 86.4844C24.2944 86.4844 17.5616 82.3103 16.3768 76.7749C16.2656 76.255 15.9247 75.8132 15.4501 75.5736C12.6097 74.14 10.5571 71.6597 9.65707 68.7315C11.1263 69.4637 12.709 69.8361 14.3597 69.8361H14.365C16.7567 69.8361 19.2115 68.9597 21.0565 67.4423C21.7828 66.845 21.8906 65.6872 21.2999 64.9673C20.7065 64.2442 19.5463 64.1338 18.8262 64.7242C17.5518 65.7684 16.0084 66.3203 14.3613 66.3203C12.3903 66.3203 10.5497 65.5112 9.21814 64.0842C9.36984 62.6876 9.77484 61.3459 10.43 60.0819C10.8759 59.2214 10.5413 58.1625 9.68203 57.7144C5.8783 55.7313 3.51562 51.8379 3.51562 47.5539C3.51562 43.0736 6.15305 38.9797 10.2347 37.1243C10.7002 36.9127 11.0507 36.5089 11.1943 36.0181C11.3379 35.5273 11.2607 34.9982 10.983 34.569C9.78328 32.7155 9.14906 30.5666 9.14906 28.3549C9.14906 24.1875 15.129 20.0278 19.121 17.8494C19.8434 21.5046 21.9175 24.8196 24.9717 27.0554C25.7142 27.5989 26.8722 27.4351 27.4286 26.6753C28.002 25.8919 27.8318 24.792 27.0483 24.2186C22.6146 20.973 21.0999 14.7556 23.5635 9.84621C25.4878 6.01084 29.5045 3.51562 33.7982 3.51562C37.5288 3.51562 40.9815 5.31193 43.1321 8.34557L43.1323 8.52293C43.1253 9.68186 43.1221 12.2534 43.126 18.065H33.3473C32.6364 18.065 31.9955 18.4932 31.7234 19.15C31.4513 19.8067 31.6016 20.5627 32.104 21.0654C34.8513 23.8141 34.8513 28.2864 32.1042 31.0351C29.4391 33.7017 24.7994 33.6936 22.1423 31.0351C21.456 30.3485 20.3432 30.3481 19.6564 31.0345C18.9698 31.7208 18.9694 32.8338 19.6559 33.5204C19.9273 33.792 20.212 34.0455 20.5065 34.2833L16.0559 38.854C13.6635 41.2567 13.6663 45.1587 16.0643 47.558C18.4155 49.9106 22.4346 49.9001 24.7753 47.5581C25.4616 46.8714 25.4612 45.7585 24.7746 45.0722C24.0877 44.386 22.9751 44.3862 22.2889 45.0726C21.3209 46.041 19.5514 46.0738 18.5511 45.073C17.5199 44.0413 17.5199 42.3626 18.5511 41.3307C18.5563 41.3253 18.5618 41.3198 18.5671 41.3144C18.5671 41.3144 23.696 36.0471 23.6965 36.0464C23.7563 35.9851 25.5354 36.4985 25.759 36.5275C28.9925 36.9459 32.2878 35.8244 34.5906 33.5204C37.8121 30.2971 38.5126 25.492 36.6922 21.5807H43.129C43.133 26.0764 43.1402 32.024 43.1513 39.8958H38.8477V39.4516C38.8477 38.4808 38.0607 37.6938 37.0898 37.6938C36.119 37.6938 35.332 38.4808 35.332 39.4516V43.8551C35.332 44.826 36.119 45.6129 37.0898 45.6129C38.0607 45.6129 38.8477 44.826 38.8477 43.8551V43.4116H43.1562C43.1575 44.2429 43.1691 52.0699 43.1738 55.044H38.2537C37.9563 54.2238 37.4808 53.4544 36.8244 52.7977C35.6611 51.6336 34.1144 50.9927 32.4691 50.9927C30.8238 50.9927 29.2769 51.6336 28.1136 52.7977C27.4273 53.4844 27.4277 54.5973 28.1143 55.2837C28.8011 55.9698 29.9137 55.9696 30.6002 55.2832C32.9344 52.9488 36.7603 56.6017 34.3378 59.0252C33.6516 59.7118 33.6517 60.8249 34.3383 61.5111C35.0005 62.1729 36.1448 62.1904 36.8242 61.5106C37.6655 60.6688 38.211 59.6419 38.4625 58.5598H43.1794C43.1863 62.6085 43.1931 66.4413 43.2 69.8446H29.4089C28.9426 69.8446 28.4954 70.0298 28.1656 70.3598C25.7648 72.7618 25.7648 76.6702 28.1654 79.0724C30.4984 81.4069 34.5563 81.3939 36.8763 79.0726C37.5625 78.3858 37.5623 77.2729 36.8757 76.5867C36.189 75.9004 35.0764 75.9006 34.3902 76.5868C33.4018 77.5754 31.6345 77.57 30.6522 76.5872C29.7791 75.7136 29.6452 74.376 30.2509 73.3602H43.2074C43.2139 76.3622 43.2318 82.5446 43.2346 83.1022C40.2126 85.2594 36.1832 86.4844 32.0377 86.4844ZM80.3181 57.7146C79.4589 58.1627 79.1242 59.2216 79.5702 60.082C80.4199 61.7219 80.8509 63.4924 80.8509 65.3442C80.8509 69.6923 78.4366 73.6121 74.5501 75.5738C74.0753 75.8134 73.7346 76.2551 73.6233 76.7751C72.4384 82.3103 65.7056 86.4844 57.9623 86.4844C53.7616 86.4844 49.7287 85.2599 46.7566 83.1041L46.7423 73.36H53.096C53.7355 76.0795 56.1793 78.1107 59.0901 78.1107C62.4862 78.1107 65.2491 75.3467 65.2491 71.9494C65.2491 68.5521 62.4862 65.7881 59.0901 65.7881C56.4328 65.7881 54.1633 67.4805 53.3016 69.8444H46.7372L46.7209 58.5596H63.0466C63.8049 61.103 66.1632 62.9631 68.9488 62.9631C72.3449 62.9631 75.1078 60.1991 75.1078 56.8018C75.1078 53.4045 72.3449 50.6405 68.9488 50.6405C66.1632 50.6405 63.8049 52.5006 63.0466 55.044H46.7156L46.6987 43.4116H50.5471C51.3055 45.955 53.6637 47.8151 56.4493 47.8151C59.8454 47.8151 62.6084 45.0512 62.6084 41.6538C62.6084 38.2565 59.8454 35.4925 56.4493 35.4925C53.6637 35.4925 51.3055 37.3526 50.5471 39.896H46.6937L46.6669 21.5808H51.8013C52.5834 24.0854 54.9237 25.9084 57.6817 25.9084C61.0778 25.9084 63.8408 23.1444 63.8408 19.7471C63.8408 16.3498 61.0778 13.5858 57.6817 13.5858C54.8685 13.5858 52.4916 15.483 51.7579 18.0652H46.6618L46.6476 8.3301C48.7339 5.30596 52.2679 3.51562 56.2018 3.51562C62.5129 3.51562 67.6475 8.65336 67.6475 14.9683C67.6475 16.0532 68.5014 16.4858 68.866 16.6706C76.3704 20.4718 80.8508 24.8398 80.8509 28.3549C80.8511 32.7322 77.9834 37.8844 73.1848 38.0392C72.7154 38.0533 72.2795 38.2502 71.9578 38.5929C71.6361 38.934 71.4674 39.3822 71.4832 39.8515C71.4973 40.3103 71.6871 40.7392 72.0176 41.0592C72.3463 41.3791 72.7805 41.5549 73.2393 41.5549H73.2445C73.2604 41.5549 73.2778 41.5549 73.2936 41.5531C76.2321 41.2219 79.0875 40.1128 81.0345 37.8032C84.3847 39.87 86.4844 43.5575 86.4844 47.5539C86.4844 51.8379 84.1217 55.7313 80.3181 57.7146ZM56.4467 71.9494C56.4467 70.4906 57.6325 69.3037 59.0901 69.3037C60.5477 69.3037 61.7335 70.4906 61.7335 71.9494C61.7335 73.4082 60.5477 74.5951 59.0901 74.5951C57.6325 74.5951 56.4467 73.4082 56.4467 71.9494ZM66.3054 56.8016C66.3054 55.3428 67.4912 54.1559 68.9488 54.1559C70.4064 54.1559 71.5922 55.3428 71.5922 56.8016C71.5922 58.2604 70.4064 59.4473 68.9488 59.4473C67.4912 59.4473 66.3054 58.2606 66.3054 56.8016ZM53.8061 41.6537C53.8061 40.1948 54.9919 39.008 56.4495 39.008C57.9071 39.008 59.0929 40.1948 59.0929 41.6537C59.0929 43.1125 57.9071 44.2993 56.4495 44.2993C54.9919 44.2993 53.8061 43.1125 53.8061 41.6537ZM55.0383 19.7469C55.0383 18.2881 56.2242 17.1012 57.6817 17.1012C59.1393 17.1012 60.3251 18.2881 60.3251 19.7469C60.3251 21.2057 59.1393 22.3926 57.6817 22.3926C56.2242 22.3926 55.0383 21.2057 55.0383 19.7469Z" fill="#E44918" fill-opacity="0.3"/>
<path d="M23.2804 58.2767C22.7917 58.2346 22.3066 58.3998 21.9445 58.7303C21.6175 59.0291 21.4171 59.4369 21.3802 59.8781C21.3398 60.3475 21.4839 60.8027 21.788 61.1613C22.0904 61.5199 22.514 61.7396 22.9816 61.7801C23.0326 61.7836 23.0818 61.7853 23.1328 61.7853C23.5722 61.7853 23.9923 61.6219 24.3175 61.3248C24.6445 61.026 24.8449 60.6182 24.8835 60.1769C24.8835 60.1752 24.8835 60.1752 24.8818 60.1752C24.9626 59.2101 24.2454 58.3576 23.2804 58.2767Z" fill="#E44918" fill-opacity="0.3"/>
<path d="M68.0767 36.0684C68.0767 36.0684 68.0767 36.0684 68.075 36.0666C67.7463 35.7485 67.3121 35.5745 66.855 35.5745C66.3734 35.5745 65.9234 35.7643 65.5894 36.1106C65.2642 36.4481 65.0884 36.8928 65.0972 37.3622C65.1043 37.8315 65.2941 38.2692 65.6316 38.5944C65.6316 38.5944 65.6316 38.5961 65.6334 38.5961C65.9621 38.9143 66.3963 39.0901 66.8533 39.0901C67.3349 39.0901 67.7849 38.8985 68.1189 38.5522C68.7904 37.8561 68.7728 36.7434 68.0767 36.0684Z" fill="#E44918" fill-opacity="0.3"/>
</svg>
