<svg width="90" height="90" viewBox="0 0 90 90" fill="none" xmlns="http://www.w3.org/2000/svg">
<g clip-path="url(#clip0)">
<path d="M73.125 90H16.875C11.7075 90 7.5 85.7925 7.5 80.625V9.375C7.5 4.2075 11.7075 0 16.875 0H73.125C78.2925 0 82.5 4.2075 82.5 9.375V80.625C82.5 85.7925 78.2925 90 73.125 90ZM16.875 3.75C13.7737 3.75 11.25 6.27375 11.25 9.375V80.625C11.25 83.7262 13.7737 86.25 16.875 86.25H73.125C76.2262 86.25 78.75 83.7262 78.75 80.625V9.375C78.75 6.27375 76.2262 3.75 73.125 3.75H16.875Z" fill="#E44918" fill-opacity="0.3"/>
<path d="M69.375 45H61.875C60.84 45 60 44.16 60 43.125C60 42.09 60.84 41.25 61.875 41.25H69.375C70.41 41.25 71.25 42.09 71.25 43.125C71.25 44.16 70.41 45 69.375 45Z" fill="#E44918" fill-opacity="0.3"/>
<path d="M69.375 33.75H61.875C60.84 33.75 60 32.91 60 31.875C60 30.84 60.84 30 61.875 30H69.375C70.41 30 71.25 30.84 71.25 31.875C71.25 32.91 70.41 33.75 69.375 33.75Z" fill="#E44918" fill-opacity="0.3"/>
<path d="M69.375 56.25H61.875C60.84 56.25 60 55.41 60 54.375C60 53.34 60.84 52.5 61.875 52.5H69.375C70.41 52.5 71.25 53.34 71.25 54.375C71.25 55.41 70.41 56.25 69.375 56.25Z" fill="#E44918" fill-opacity="0.3"/>
<path d="M69.375 67.5H61.875C60.84 67.5 60 66.66 60 65.625C60 64.59 60.84 63.75 61.875 63.75H69.375C70.41 63.75 71.25 64.59 71.25 65.625C71.25 66.66 70.41 67.5 69.375 67.5Z" fill="#E44918" fill-opacity="0.3"/>
<path d="M69.375 78.75H20.625C19.59 78.75 18.75 77.91 18.75 76.875C18.75 75.84 19.59 75 20.625 75H69.375C70.41 75 71.25 75.84 71.25 76.875C71.25 77.91 70.41 78.75 69.375 78.75Z" fill="#E44918" fill-opacity="0.3"/>
<path d="M37.5 67.5C27.1613 67.5 18.75 59.0887 18.75 48.75C18.75 38.4113 27.1613 30 37.5 30C47.8387 30 56.25 38.4113 56.25 48.75C56.25 59.0887 47.8387 67.5 37.5 67.5ZM37.5 33.75C29.2275 33.75 22.5 40.4775 22.5 48.75C22.5 57.0225 29.2275 63.75 37.5 63.75C45.7725 63.75 52.5 57.0225 52.5 48.75C52.5 40.4775 45.7725 33.75 37.5 33.75Z" fill="#E44918" fill-opacity="0.3"/>
<path d="M25.5676 62.5575C25.0876 62.5575 24.6076 62.3737 24.2401 62.01C23.5088 61.2787 23.5088 60.09 24.2401 59.3587L35.6251 47.9737V31.875C35.6251 30.84 36.4651 30 37.5001 30C38.5351 30 39.3751 30.84 39.3751 31.875V48.75C39.3751 49.2487 39.1763 49.725 38.8276 50.0775L26.8951 62.01C26.5276 62.3737 26.0476 62.5575 25.5676 62.5575Z" fill="#E44918" fill-opacity="0.3"/>
</g>
<defs>
<clipPath id="clip0">
<rect width="90" height="90" fill="white"/>
</clipPath>
</defs>
</svg>
