<svg width="90" height="90" viewBox="0 0 90 90" fill="none" xmlns="http://www.w3.org/2000/svg">
<path d="M37.5199 6.01758C20.1295 6.01758 6.03186 20.1152 6.03186 37.5056C6.03186 54.896 20.1295 68.9937 37.5199 68.9937C54.9103 68.9937 69.008 54.896 69.008 37.5056C68.989 20.1231 54.9025 6.03651 37.5199 6.01758ZM37.5199 9.01644C46.7819 9.02375 55.4612 13.5378 60.7851 21.1169L57.0365 24.8654C56.1243 24.3135 55.0799 24.0181 54.0137 24.0108C50.7012 24.0108 48.0159 26.696 48.0159 30.0085C48.0212 31.0759 48.3149 32.1219 48.8661 33.0358L39.0478 42.8541C37.1887 41.7205 34.8522 41.7205 32.9931 42.8541L26.1737 36.0347C26.725 35.1208 27.0187 34.0748 27.0239 33.0073C27.028 29.7015 24.3515 27.0182 21.0457 27.0141C18.3116 27.0107 15.9229 28.8601 15.2414 31.5079H9.67848C12.5175 18.3978 24.106 9.03612 37.5199 9.01644ZM57.0125 30.0085C57.0125 31.6648 55.67 33.0073 54.0137 33.0073C52.3574 33.0073 51.0148 31.6648 51.0148 30.0085C51.0148 28.3522 52.3574 27.0096 54.0137 27.0096C55.67 27.0096 57.0125 28.3522 57.0125 30.0085ZM39.0194 48.0017C39.0194 49.658 37.6768 51.0005 36.0205 51.0005C34.3642 51.0005 33.0216 49.658 33.0216 48.0017C33.0216 46.3453 34.3642 45.0028 36.0205 45.0028C37.6768 45.0028 39.0194 46.3453 39.0194 48.0017ZM24.025 33.0073C24.025 34.6637 22.6825 36.0062 21.0262 36.0062C19.3699 36.0062 18.0273 34.6637 18.0273 33.0073C18.0273 31.351 19.3699 30.0085 21.0262 30.0085C22.6825 30.0085 24.025 31.351 24.025 33.0073ZM51.3623 62.4161C47.1279 64.7672 42.3635 65.999 37.5199 65.9947C21.7965 66.0053 9.04141 53.2678 9.03072 37.5444C9.02997 36.5297 9.08358 35.5155 9.19116 34.5066H15.2414C15.923 37.1465 18.2996 38.9946 21.0262 39.0049C22.0936 38.9996 23.1396 38.7059 24.0535 38.1547L30.8729 44.9741C30.3217 45.888 30.028 46.9341 30.0228 48.0015C30.0228 51.3139 32.7081 53.9992 36.0205 53.9992C39.3329 53.9992 42.0182 51.3139 42.0182 48.0015C42.013 46.9341 41.7193 45.888 41.168 44.9741L50.9863 35.1558C51.9002 35.7071 52.9463 36.0008 54.0137 36.006C57.3261 36.006 60.0114 33.3207 60.0114 30.0083C60.0061 28.9409 59.7124 27.8948 59.1612 26.9809L62.43 23.7137C70.0611 37.4575 65.1059 54.7851 51.3623 62.4161Z" fill="#E44918" fill-opacity="0.3"/>
<path d="M75.0056 15.0143C77.7322 15.004 80.1087 13.1561 80.7904 10.516H89.9999V7.51711H80.7904C80.1087 4.87699 77.7322 3.02912 75.0056 3.01882C71.6932 3.01882 69.0079 5.70411 69.0079 9.01654C69.0131 10.0839 69.3068 11.13 69.8581 12.0439L67.2236 14.6784C54.618 -1.74432 31.086 -4.83877 14.6633 7.76677C-1.75945 20.3723 -4.8539 43.9046 7.75163 60.3273C19.6504 75.829 41.4617 79.5893 57.8641 68.9668L62.3894 73.4921L64.5096 75.6123L76.58 87.6827C79.6499 90.7526 84.6269 90.7526 87.6968 87.6827C90.7667 84.6128 90.7667 79.6358 87.6968 76.5659L75.6264 64.4955L73.5062 62.3753L68.9809 57.85C77.0139 45.4767 77.0139 29.5349 68.9809 17.1615L71.9798 14.1626C72.8931 14.714 73.9388 15.0083 75.0056 15.0143ZM75.0056 6.01768C76.6619 6.01768 78.0045 7.36023 78.0045 9.01654C78.0045 10.6729 76.6619 12.0154 75.0056 12.0154C73.3493 12.0154 72.0068 10.6729 72.0068 9.01654C72.0068 7.36023 73.3495 6.01768 75.0056 6.01768ZM85.5766 78.6861C87.497 80.5634 87.5321 83.6421 85.6548 85.5625C83.7775 87.4829 80.6988 87.518 78.7784 85.6407C78.752 85.615 78.7261 85.589 78.7002 85.5625L66.6298 73.4921L73.5062 66.6157L85.5766 78.6861ZM71.386 64.4955L64.5096 71.3719L60.3592 67.2215C60.5706 67.0595 60.7685 66.8811 60.9769 66.7147C61.1854 66.5482 61.4268 66.3488 61.6502 66.1614C61.9786 65.8855 62.3024 65.6066 62.6203 65.3202C62.7838 65.1703 62.9397 65.0203 63.1001 64.8704C63.7149 64.2946 64.3102 63.6993 64.886 63.0845C65.0359 62.9241 65.1858 62.7682 65.3358 62.6047C65.6222 62.2868 65.9011 61.963 66.177 61.6346C66.365 61.4127 66.5494 61.1883 66.7303 60.9613C66.8952 60.7544 67.0736 60.5565 67.2356 60.3451L71.386 64.4955ZM65.5712 57.5307C65.0989 58.1904 64.6116 58.8367 64.0973 59.4589C63.9473 59.6404 63.7869 59.8158 63.6324 59.9942C63.1736 60.528 62.6998 61.0459 62.211 61.5476C61.9981 61.7675 61.7816 61.984 61.5617 62.1969C61.0619 62.6857 60.5442 63.1595 60.0083 63.6183C59.8299 63.7683 59.6544 63.9317 59.473 64.0832C58.8507 64.5975 58.2045 65.0848 57.5447 65.5571C42.0226 76.6463 20.4498 73.0528 9.36052 57.5307C-1.72871 42.0085 1.86486 20.4356 17.387 9.34642C32.9091 -1.74282 54.482 1.85057 65.5712 17.3729C74.1519 29.3837 74.1519 45.5198 65.5712 57.5307Z" fill="#E44918" fill-opacity="0.3"/>
</svg>
