<svg width="90" height="90" viewBox="0 0 90 90" fill="none" xmlns="http://www.w3.org/2000/svg">
<g clip-path="url(#clip0)">
<path d="M12.542 34.2196C13.0054 33.1484 13.5186 32.1118 14.0716 31.1153C14.7742 29.8397 15.5466 28.6289 16.3786 27.4779C16.8022 26.8899 17.6293 26.7603 18.2173 27.184C18.8053 27.6124 18.9348 28.4347 18.5113 29.0225C17.724 30.1088 17.0116 31.2299 16.3687 32.391C16.0351 32.9888 15.721 33.6017 15.4271 34.2196H20.2305C20.963 34.2196 21.551 34.8076 21.551 35.535V41.7784V47.075C21.551 48.2958 21.2869 49.4569 20.8136 50.5082C22.1989 51.0862 23.38 51.8236 24.2817 52.6758C25.5772 53.8915 26.3197 55.3515 26.3197 56.936V63.3687C26.3197 64.0963 25.7266 64.6892 24.9991 64.6892H16.8122C17.2457 65.4315 17.7091 66.1591 18.1974 66.8617C19.1094 68.1721 20.1057 69.4029 21.182 70.5439C21.6803 71.072 21.6554 71.9041 21.1222 72.4025C20.594 72.9008 19.762 72.8757 19.2637 72.3476C18.0928 71.0969 17.0116 69.7665 16.0349 68.3664C15.2177 67.1904 14.4703 65.9647 13.7974 64.689H1.32047C0.593086 64.689 0 64.0961 0 63.3685V56.9358C0 55.3614 0.73248 53.9163 2.00813 52.7006C2.91498 51.8385 4.11082 51.0911 5.506 50.508C5.03262 49.4567 4.76859 48.2957 4.76859 47.0749V41.7782V39.4962C4.76859 38.0413 5.3615 36.7208 6.31828 35.7642C7.27488 34.8125 8.59553 34.2195 10.0455 34.2195H12.542V34.2196ZM82.5956 45.0871L75.6395 42.7303L71.0902 44.9625V47.0752C71.0902 48.6548 71.7381 50.0948 72.7792 51.1363C73.8207 52.1776 75.2607 52.8254 76.8403 52.8254C78.425 52.8254 79.8599 52.1776 80.9063 51.1363C81.9478 50.095 82.5956 48.6548 82.5956 47.0752V45.0871ZM71.0902 42.0377L74.897 40.174C75.2108 39.9896 75.5996 39.9399 75.9732 40.0644L82.5956 42.3066V39.4964C82.5956 38.7688 82.3013 38.1112 81.8181 37.6328C81.3396 37.1495 80.682 36.8555 79.9545 36.8555H73.7258C73.0034 36.8555 72.3456 37.1494 71.8622 37.6328C71.3839 38.1111 71.0898 38.7688 71.0898 39.4964V42.0377H71.0902ZM7.40443 40.4581H18.9148V36.8556H10.0454C9.32291 36.8556 8.66021 37.1495 8.18174 37.6329C7.70344 38.1112 7.40426 38.769 7.40426 39.4966V40.4581H7.40443ZM18.9148 43.0939H7.40443V47.0752C7.40443 48.6548 8.05236 50.0948 9.09879 51.1363C10.1403 52.1776 11.5803 52.8254 13.1599 52.8254C14.7393 52.8254 16.1794 52.1776 17.2208 51.1363C18.2672 50.095 18.9149 48.6548 18.9149 47.0752V43.0939H18.9148ZM50.7551 69.169C48.8716 69.443 45.8021 69.4131 43.2561 67.166C42.3642 67.6842 40.9539 68.2621 39.2449 68.1227V71.3167C39.2449 72.8962 39.8928 74.3362 40.9391 75.3827C41.9806 76.424 43.4204 77.0718 45 77.0718C46.5845 77.0718 48.0196 76.424 49.066 75.3827C50.1073 74.3362 50.7551 72.8962 50.7551 71.3167V69.169ZM39.2449 65.4816C41.1634 65.7507 42.5138 64.495 42.5138 64.49L42.5187 64.495L42.5486 64.4651C43.0966 63.9917 43.9237 64.0515 44.4022 64.5997C46.465 66.9715 49.3251 66.797 50.7553 66.518V63.7377C50.7553 63.0152 50.4562 62.3525 49.978 61.8741C49.4995 61.3958 48.8419 61.0968 48.1143 61.0968H41.8857C41.1634 61.0968 40.5005 61.3958 40.022 61.8741C39.5438 62.3525 39.2447 63.0152 39.2447 63.7377V65.4816H39.2449ZM19.3284 52.7457C17.7388 54.4747 15.5116 55.4663 13.1597 55.4663C10.8077 55.4663 8.58041 54.4747 6.99082 52.7507C5.68037 53.239 4.59404 53.8718 3.82184 54.6043C3.06949 55.3218 2.63584 56.119 2.63584 56.9362V62.0535H23.6835V56.9362C23.6835 56.1141 23.245 55.3118 22.4777 54.5893C21.7053 53.8618 20.6288 53.2341 19.3284 52.7457ZM85.2314 47.0752C85.2314 48.296 84.9674 49.457 84.494 50.5084C85.8894 51.0913 87.0801 51.8387 87.987 52.6958C89.2675 53.9117 90 55.3566 90 56.9362V63.3689C90 64.0965 89.412 64.6894 88.6846 64.6894H76.1576C75.4799 65.92 74.7176 67.1259 73.8854 68.2969C72.8938 69.6872 71.8077 71.0126 70.6366 72.2583C70.1383 72.7866 69.3062 72.8115 68.7781 72.3132C68.2499 71.8148 68.2249 70.9829 68.7183 70.4546C69.8143 69.2938 70.826 68.058 71.7428 66.7724C72.2261 66.0947 72.6845 65.4022 73.118 64.6895H65.0009C64.2734 64.6895 63.6805 64.0966 63.6805 63.3691V56.9364C63.6805 55.3519 64.4228 53.9018 65.7132 52.6812C66.6151 51.829 67.8011 51.0867 69.1914 50.5087C68.7129 49.4574 68.4489 48.2964 68.4489 47.0756V39.4967C68.4489 38.0418 69.0467 36.7213 69.9984 35.7647C70.955 34.8131 72.2754 34.22 73.7255 34.22H74.5875C74.3034 33.6121 73.9946 33.0141 73.6657 32.4261C73.0128 31.2501 72.2805 30.1041 71.4783 29.0079C71.0497 28.4199 71.1745 27.5978 71.7623 27.1694C72.3452 26.7408 73.1674 26.8653 73.601 27.4533C74.4579 28.6293 75.2504 29.865 75.9628 31.1505C76.5158 32.1421 77.0193 33.1685 77.4728 34.2198H79.9541C81.4089 34.2198 82.7297 34.8129 83.6863 35.7646C84.638 36.7212 85.2309 38.0416 85.2309 39.4966V47.0752H85.2314ZM83.009 52.7507C81.4194 54.4747 79.197 55.4663 76.8401 55.4663C74.4882 55.4663 72.266 54.4747 70.6714 52.7507C69.371 53.2341 68.2896 53.8669 67.5174 54.5942C66.7549 55.3167 66.3214 56.119 66.3214 56.9362V62.0535H87.364V56.9362C87.364 56.119 86.9303 55.3218 86.1731 54.6043C85.4058 53.8718 84.3196 53.239 83.009 52.7507ZM53.3911 71.3165C53.3911 72.5373 53.1271 73.7033 52.6537 74.7497C54.0489 75.3377 55.2398 76.08 56.1466 76.942C56.6399 77.4105 57.0535 77.9137 57.3725 78.4469C58.4288 77.9985 59.4554 77.4952 60.4568 76.9371C61.842 76.1647 63.1775 75.2828 64.4528 74.3111C65.031 73.8676 65.8531 73.9773 66.2964 74.5553C66.735 75.1332 66.6253 75.9605 66.0473 76.3989C64.6821 77.4404 63.2421 78.392 61.7323 79.234C60.5714 79.8818 59.3754 80.4649 58.1546 80.9681C58.1595 81.0377 58.1595 81.1126 58.1595 81.1824V87.6151C58.1595 88.3427 57.5714 88.9305 56.8441 88.9305H33.1608C32.4332 88.9305 31.8403 88.3425 31.8403 87.6151V81.1824C31.8403 81.1126 31.8452 81.0428 31.8452 80.9732C30.5895 80.4599 29.3688 79.882 28.1879 79.2391C26.6831 78.4219 25.248 77.4952 23.8827 76.4737C23.2998 76.0403 23.1852 75.2181 23.6187 74.6351C24.0523 74.0569 24.8794 73.9374 25.4573 74.376C26.718 75.3176 28.0484 76.1698 29.4435 76.9322C30.4701 77.4952 31.5315 77.9985 32.6227 78.452C32.9416 77.9239 33.3503 77.4256 33.8384 76.9571C34.7453 76.0902 35.9411 75.3428 37.3514 74.7548C36.8728 73.7034 36.6087 72.5424 36.6087 71.3167V63.7379C36.6087 62.2878 37.2016 60.9676 38.1584 60.0108C39.1152 59.0542 40.4357 58.4613 41.8855 58.4613H48.1141C49.5691 58.4613 50.8896 59.0542 51.8412 60.0108C52.798 60.9676 53.3909 62.2878 53.3909 63.7379V71.3165H53.3911ZM51.1687 76.9919C49.5793 78.7209 47.352 79.7076 45 79.7076C42.6482 79.7076 40.4207 78.7209 38.8313 76.9919C37.5159 77.4803 36.4294 78.1231 35.6521 78.8605C34.9047 79.5729 34.4763 80.3703 34.4763 81.1826V86.2948H55.5237V81.1826C55.5237 80.3654 55.0902 79.5631 54.3379 78.8507C53.5655 78.118 52.4793 77.4801 51.1687 76.9919ZM22.2683 24.6926C21.745 25.1959 20.9129 25.181 20.4098 24.6576C19.9065 24.1345 19.9215 23.3024 20.4446 22.7991C21.491 21.7926 22.5874 20.8559 23.7384 19.9938C24.6901 19.2814 25.6966 18.6087 26.7479 17.9808C27.0868 13.4813 29.05 9.43535 32.0597 6.43054C35.3681 3.11707 39.9475 1.06921 45 1.06921C50.0576 1.06921 54.6319 3.11707 57.9456 6.43054C60.93 9.41513 62.8884 13.4314 63.2471 17.891C64.2785 18.5238 65.2751 19.2114 66.2317 19.9388C67.3829 20.8158 68.4891 21.7675 69.5355 22.7889C70.0588 23.2922 70.0687 24.1243 69.5654 24.6475C69.0571 25.1657 68.2251 25.1757 67.7069 24.6724C66.7352 23.7306 65.7086 22.8487 64.6372 22.0315C64.179 21.6776 63.7107 21.3438 63.2421 21.02C62.8335 26.0277 60.5962 29.431 58.4485 32.6898C56.5052 35.6445 54.6418 38.4748 54.6119 42.2767L54.6168 48.3705C54.6168 50.1245 53.8993 51.7141 52.7433 52.87C51.592 54.021 49.9976 54.7386 48.2488 54.7386H41.7563C40.0022 54.7386 38.4079 54.021 37.2565 52.87C36.1055 51.7139 35.3881 50.1245 35.3881 48.3705L35.3928 42.2767C35.358 38.4749 33.4995 35.6445 31.5563 32.6898C29.4137 29.441 27.1863 26.0577 26.7678 21.08C26.2746 21.4089 25.7912 21.7527 25.3178 22.1064C24.2316 22.9139 23.2151 23.7809 22.2683 24.6926ZM38.0239 46.3728H51.9759V43.702H38.0239V46.3728ZM51.921 49.0086H38.079C38.2136 49.7808 38.5871 50.4736 39.1203 51.0067C39.7979 51.6844 40.7297 52.1029 41.7563 52.1029H48.2488C49.2703 52.1029 50.2019 51.6844 50.8797 51.0067C51.4129 50.4736 51.7864 49.7808 51.921 49.0086ZM43.7293 29.4313C43.515 28.644 43.1413 27.5677 42.7178 26.3369C41.5269 22.8939 39.9424 18.3097 39.9424 14.8466C39.9424 11.5231 41.2131 9.15128 44.9998 9.15128C48.7865 9.15128 50.0623 11.5231 50.0623 14.8466C50.0623 18.3097 48.4778 22.8939 47.2869 26.3369C46.8584 27.5726 46.4848 28.659 46.2654 29.4463C46.0761 30.1489 45.3535 30.5574 44.656 30.3681C44.183 30.2384 43.8441 29.8697 43.7293 29.4313ZM42.5784 14.8466C42.5784 17.7266 43.9087 21.7377 45 24.9118C46.0962 21.7377 47.4267 17.7266 47.4267 14.8466C47.4267 13.0628 46.8139 11.7871 45 11.7871C43.1863 11.7873 42.5784 13.0629 42.5784 14.8466ZM43.6846 34.0852C43.6846 33.3576 44.2726 32.7698 45 32.7698C45.7274 32.7698 46.3205 33.3578 46.3205 34.0852V35.4554C46.3205 36.1829 45.7276 36.7709 45 36.7709C44.2724 36.7709 43.6846 36.1829 43.6846 35.4554V34.0852ZM37.9593 41.0661H52.0406C52.3895 37.1248 54.283 34.2448 56.2562 31.25C58.4135 27.9713 60.6707 24.5381 60.6707 19.3761C60.6707 15.0461 58.917 11.1295 56.0818 8.29435C53.2466 5.45918 49.33 3.70523 45 3.70523C40.6749 3.70523 36.7583 5.45918 33.9231 8.29435C31.0878 11.1295 29.334 15.0461 29.334 19.3761C29.334 24.5383 31.5912 27.9713 33.7488 31.25C35.7168 34.2448 37.6154 37.1246 37.9593 41.0661Z" fill="#E44918" fill-opacity="0.32"/>
</g>
<defs>
<clipPath id="clip0">
<rect width="90" height="90" fill="white"/>
</clipPath>
</defs>
</svg>
