<svg width="90" height="90" viewBox="0 0 90 90" fill="none" xmlns="http://www.w3.org/2000/svg">
<path d="M60.4688 32.3438C59.4591 32.3438 58.4648 32.4028 57.4819 32.5069C57.5859 31.5197 57.6562 30.5269 57.6562 29.5312C57.6562 14.0231 45.0394 1.40625 29.5312 1.40625C14.0231 1.40625 1.40625 14.0231 1.40625 29.5312C1.40625 45.0394 14.0231 57.6562 29.5312 57.6562C30.5269 57.6562 31.5197 57.5873 32.5069 57.4833C32.4028 58.4648 32.3438 59.4605 32.3438 60.4688C32.3438 75.9769 44.9606 88.5938 60.4688 88.5938C75.9769 88.5938 88.5938 75.9769 88.5938 60.4688C88.5938 44.9606 75.9769 32.3438 60.4688 32.3438ZM29.5312 54.8438C15.5742 54.8438 4.21875 43.4883 4.21875 29.5312C4.21875 15.5742 15.5742 4.21875 29.5312 4.21875C43.4883 4.21875 54.8438 15.5742 54.8438 29.5312C54.8438 30.6858 54.7425 31.8361 54.5878 32.9723C53.5725 33.1889 52.5825 33.4716 51.6108 33.795C51.8794 32.3958 52.0312 30.9713 52.0312 29.5312C52.0312 17.1253 41.9372 7.03125 29.5312 7.03125C17.1253 7.03125 7.03125 17.1253 7.03125 29.5312C7.03125 41.9372 17.1253 52.0312 29.5312 52.0312C30.9713 52.0312 32.3944 51.8794 33.795 51.6108C33.4716 52.5825 33.1903 53.5725 32.9723 54.5864C31.8347 54.7411 30.6858 54.8438 29.5312 54.8438ZM35.0986 48.4102C33.2972 48.9403 31.4283 49.2188 29.5312 49.2188C24.0595 49.2188 19.1067 46.9716 15.5363 43.3575C15.7922 41.6095 17.0873 40.1991 18.8522 39.8419L24.0455 38.7886C24.3689 38.6958 24.6755 38.5664 24.9722 38.4216L29.5312 44.5416L34.1002 38.4089C34.425 38.5692 34.7625 38.7127 35.1253 38.8153L40.2103 39.8419C40.5183 39.9038 40.8094 40.0092 41.092 40.1358C38.6198 42.4927 36.5864 45.2939 35.0986 48.4102V48.4102ZM22.5 29.5312C21.7252 29.5312 21.0938 28.8998 21.0938 28.125C21.0938 27.3502 21.7252 26.7188 22.5 26.7188V29.5312ZM23.5969 23.9062H22.5C22.1302 23.9062 21.7772 23.9695 21.4355 24.0595C21.2189 23.4014 21.0938 22.7137 21.0938 22.0177C21.0938 18.4064 24.0314 15.4688 27.6427 15.4688H31.4212C35.0311 15.4688 37.9688 18.4064 37.9688 22.0177C37.9688 22.7137 37.8436 23.4014 37.627 24.0595C37.2853 23.9695 36.9323 23.9062 36.5625 23.9062H35.1562H32.6756C30.8363 23.9062 28.9941 23.4717 27.3473 22.6477L27.0506 22.5H26.7188C25.477 22.5 24.3703 23.0498 23.5969 23.9062ZM36.5625 26.7188C37.3373 26.7188 37.9688 27.3502 37.9688 28.125C37.9688 28.8998 37.3373 29.5312 36.5625 29.5312V26.7188ZM33.75 29.5312C33.75 31.8572 31.8572 33.75 29.5312 33.75C27.2053 33.75 25.3125 31.8572 25.3125 29.5312V26.7188C25.3125 26.0353 25.8033 25.463 26.4502 25.3378C28.3908 26.242 30.5353 26.7188 32.6756 26.7188H33.75V29.5312ZM27.367 36.1856C28.0533 36.4106 28.7719 36.5625 29.5312 36.5625C30.292 36.5625 31.0106 36.4106 31.6969 36.1856C31.7756 36.322 31.86 36.4556 31.9514 36.585L29.5312 39.8334L27.1125 36.5878C27.2025 36.457 27.2869 36.3234 27.367 36.1856V36.1856ZM43.3561 38.1994C42.5798 37.6622 41.7066 37.2741 40.7658 37.0856L35.7877 36.0844C35.0817 35.8833 34.5023 35.4108 34.1423 34.7948C34.913 34.1184 35.5472 33.2944 35.9648 32.3438H36.5625C38.8884 32.3438 40.7812 30.4509 40.7812 28.125C40.7812 27.225 40.493 26.3953 40.012 25.7091C40.5112 24.5461 40.7812 23.2889 40.7812 22.0177C40.7812 16.8553 36.5822 12.6562 31.4198 12.6562H27.6413C22.4803 12.6562 18.2812 16.8553 18.2812 22.0177C18.2812 23.2903 18.5512 24.5461 19.0505 25.7105C18.5695 26.3953 18.2812 27.225 18.2812 28.125C18.2812 30.4509 20.1741 32.3438 22.5 32.3438H23.0962C23.5139 33.2958 24.1495 34.1198 24.9202 34.7962C24.5658 35.4094 24.0089 35.8763 23.3803 36.0577L18.2953 37.0842C16.1114 37.5244 14.3691 38.9391 13.4283 40.822C11.1783 37.6214 9.84375 33.7331 9.84375 29.5312C9.84375 18.675 18.675 9.84375 29.5312 9.84375C40.3875 9.84375 49.2188 18.675 49.2188 29.5312C49.2188 31.4311 48.9361 33.3 48.4059 35.1014C46.6088 35.9592 44.9198 36.997 43.3561 38.1994V38.1994ZM60.4688 85.7812C46.5117 85.7812 35.1562 74.4258 35.1562 60.4688C35.1562 46.5117 46.5117 35.1562 60.4688 35.1562C74.4258 35.1562 85.7812 46.5117 85.7812 60.4688C85.7812 74.4258 74.4258 85.7812 60.4688 85.7812Z" fill="#E44918" fill-opacity="0.3"/>
<path d="M80.9465 38.2823L83.7126 37.7704C83.527 36.7734 83.3006 35.7707 83.039 34.792L80.3221 35.5204C80.5654 36.4275 80.775 37.357 80.9465 38.2823Z" fill="#E44918" fill-opacity="0.3"/>
<path d="M59.0625 14.0625C60.2803 14.0625 61.3702 13.5366 62.1422 12.7069C70.1691 16.9833 76.455 24.2438 79.4827 32.812L82.1349 31.8755C78.8484 22.5745 71.9958 14.7052 63.2545 10.1166C63.2602 10.0252 63.2813 9.93656 63.2813 9.84375C63.2813 7.51781 61.3884 5.625 59.0625 5.625C56.7366 5.625 54.8438 7.51781 54.8438 9.84375C54.8438 12.1697 56.7366 14.0625 59.0625 14.0625V14.0625ZM59.0625 8.4375C59.8373 8.4375 60.4688 9.06891 60.4688 9.84375C60.4688 10.6186 59.8373 11.25 59.0625 11.25C58.2877 11.25 57.6563 10.6186 57.6563 9.84375C57.6563 9.06891 58.2877 8.4375 59.0625 8.4375Z" fill="#E44918" fill-opacity="0.3"/>
<path d="M9.05333 51.7175L6.28723 52.2294C6.47286 53.2264 6.69926 54.2291 6.96082 55.2078L9.6777 54.4794C9.43442 53.5724 9.22489 52.6428 9.05333 51.7175Z" fill="#E44918" fill-opacity="0.3"/>
<path d="M30.9376 75.9375C29.7198 75.9375 28.6299 76.4635 27.8579 77.2931C19.8324 73.0167 13.5465 65.7563 10.5174 57.188L7.86523 58.1246C11.1516 67.4255 18.0043 75.2949 26.7455 79.8835C26.7399 79.9749 26.7188 80.0635 26.7188 80.1563C26.7188 82.4822 28.6116 84.375 30.9376 84.375C33.2635 84.375 35.1563 82.4822 35.1563 80.1563C35.1563 77.8303 33.2635 75.9375 30.9376 75.9375ZM30.9376 81.5625C30.1627 81.5625 29.5313 80.9311 29.5313 80.1563C29.5313 79.3814 30.1627 78.75 30.9376 78.75C31.7124 78.75 32.3438 79.3814 32.3438 80.1563C32.3438 80.9311 31.7124 81.5625 30.9376 81.5625Z" fill="#E44918" fill-opacity="0.3"/>
<path d="M77.1034 48.0542C77.102 48.0542 77.102 48.0542 77.1034 48.0542C75.7801 46.7309 73.952 46.1656 72.0873 46.5003C70.982 46.7 69.9287 47.2751 69.04 48.1639L53.4376 63.7634L49.0853 59.4097C48.1951 58.5223 47.1418 57.9472 46.0393 57.7489C44.1732 57.4114 42.3465 57.9781 41.0232 59.3014C39.6999 60.6247 39.1332 62.4528 39.4693 64.3175C39.669 65.4228 40.2442 66.4761 41.1329 67.3648L49.4607 75.694C50.5224 76.7586 51.9343 77.3436 53.4376 77.3436C54.9409 77.3436 56.3528 76.7586 57.4145 75.6954L76.9937 56.1162C77.8825 55.2275 78.4576 54.1742 78.6573 53.0689C78.992 51.2056 78.4267 49.3775 77.1034 48.0542V48.0542ZM75.8884 52.5711C75.7661 53.2503 75.34 53.7931 75.0053 54.1278L55.426 73.707C54.3643 74.7701 52.5123 74.7701 51.4492 73.707L43.1199 65.3778C42.7853 65.0417 42.3592 64.4989 42.2368 63.8197C42.0667 62.8761 42.3493 61.955 43.0131 61.2926C43.5474 60.7568 44.2534 60.4686 45.0029 60.4686C45.1787 60.4686 45.3587 60.484 45.5401 60.5164C46.2179 60.6387 46.7621 61.0648 47.0968 61.3995L53.4376 67.7403L71.0284 50.1509C71.3645 49.8162 71.9073 49.3901 72.5865 49.2678C73.5301 49.0976 74.4512 49.3803 75.1136 50.0426C75.7759 50.705 76.0586 51.6261 75.8884 52.5711V52.5711Z" fill="#E44918" fill-opacity="0.3"/>
</svg>
