<svg width="90" height="90" viewBox="0 0 90 90" fill="none" xmlns="http://www.w3.org/2000/svg">
<path d="M50.9962 83.8787C69.2202 83.8787 83.9937 69.1254 83.9937 50.9263C83.9937 32.7272 69.2202 17.9739 50.9962 17.9739C32.7722 17.9739 17.9987 32.7272 17.9987 50.9263C18.0193 69.1167 32.7806 83.8581 50.9962 83.8787ZM25.4981 49.4284H21.0749C21.8567 34.0882 34.135 21.8267 49.4963 21.0459V25.4631C49.4963 26.2902 50.1679 26.9609 50.9962 26.9609C51.8245 26.9609 52.4961 26.2902 52.4961 25.4631V21.0459C67.8574 21.8267 80.1356 34.0882 80.9174 49.4284H74.9944C74.1661 49.4284 73.4945 50.0991 73.4945 50.9263C73.4945 51.7534 74.1661 52.4241 74.9944 52.4241H80.9174C80.1356 67.7642 67.8574 80.0259 52.4961 80.8066V76.3895C52.4961 75.5623 51.8245 74.8916 50.9962 74.8916C50.1679 74.8916 49.4963 75.5623 49.4963 76.3895V80.8066C34.1352 80.0259 21.8567 67.7644 21.0749 52.4241H25.4981C26.3264 52.4241 26.998 51.7534 26.998 50.9263C26.998 50.0991 26.3264 49.4284 25.4981 49.4284Z" fill="#E44918" fill-opacity="0.3"/>
<path d="M84.7662 31.4803C84.319 30.7066 83.8452 29.9487 83.3458 29.2077L87.049 25.5095C87.6345 24.9246 87.6345 23.9765 87.049 23.3916L78.5746 14.9289C77.9889 14.3441 77.0395 14.3441 76.4538 14.9289L72.7446 18.621C66.7446 14.5758 59.7304 12.2891 52.4961 12.0201V2.99566H62.9953C63.8236 2.99566 64.4952 2.32501 64.4952 1.49783C64.4952 0.670653 63.8236 0 62.9953 0H38.9971C38.1688 0 37.4972 0.670653 37.4972 1.49783C37.4972 2.32501 38.1688 2.99566 38.9971 2.99566H49.4963V12.0336C36.1196 12.5436 23.942 19.8773 17.2487 31.4544H8.99934C8.17103 31.4544 7.49945 32.1251 7.49945 32.9522C7.49945 33.7794 8.17103 34.4501 8.99934 34.4501H17.9987C18.0377 34.4501 18.0707 34.4306 18.1097 34.4276C18.6502 34.4345 19.1515 34.1477 19.4191 33.6787C28.9619 16.2619 50.8363 9.86807 68.2772 19.3976C85.718 28.9272 92.1203 50.7719 82.5776 68.1887C73.0348 85.6054 51.1604 91.9993 33.7196 82.4697C27.684 79.1719 22.7213 74.2159 19.4189 68.1887C19.154 67.7178 18.6534 67.428 18.1125 67.4323C18.0735 67.4323 18.039 67.4098 17.9985 67.4098H8.99916C8.17084 67.4098 7.49927 68.0805 7.49927 68.9076C7.49927 69.7348 8.17084 70.4055 8.99916 70.4055H17.2485C28.0123 89.0242 51.8523 95.4042 70.4966 84.6552C89.1412 73.9063 95.5297 50.099 84.7662 31.4803ZM75.1956 20.421L77.514 18.1058L83.8676 24.4506L81.5457 26.7692C79.6784 24.4184 77.5478 22.2884 75.1956 20.421Z" fill="#E44918" fill-opacity="0.3"/>
<path d="M14.9989 50.9263C14.9989 50.099 14.3273 49.4282 13.499 49.4282H1.49989C0.671574 49.4282 0 50.099 0 50.9263C0 51.7536 0.671574 52.4243 1.49989 52.4243H13.499C14.3273 52.4243 14.9989 51.7536 14.9989 50.9263Z" fill="#E44918" fill-opacity="0.3"/>
<path d="M4.49964 43.437H14.9989C15.8272 43.437 16.4987 42.7664 16.4987 41.9393C16.4987 41.1122 15.8272 40.4417 14.9989 40.4417H4.49964C3.67133 40.4417 2.99976 41.1122 2.99976 41.9393C2.99976 42.7664 3.67114 43.437 4.49964 43.437Z" fill="#E44918" fill-opacity="0.3"/>
<path d="M16.4987 59.9131C16.4987 59.0859 15.8272 58.4153 14.9989 58.4153H4.49964C3.67133 58.4153 2.99976 59.0859 2.99976 59.9131C2.99976 60.7402 3.67133 61.4109 4.49964 61.4109H14.9989C15.8272 61.4109 16.4987 60.7402 16.4987 59.9131Z" fill="#E44918" fill-opacity="0.3"/>
<path d="M46.936 60.9721C47.5217 61.5568 48.4712 61.5568 49.0569 60.9721L69.9053 40.1524C70.4809 39.5573 70.4644 38.6092 69.8686 38.0344C69.2874 37.4739 68.3659 37.4739 67.7845 38.0344L47.9965 57.7952L39.0721 48.8832C38.4763 48.3086 37.5267 48.3249 36.9513 48.9199C36.3899 49.5003 36.3899 50.4205 36.9513 51.0011L46.936 60.9721Z" fill="#E44918" fill-opacity="0.3"/>
</svg>
