<svg width="88" height="88" viewBox="0 0 88 88" fill="none" xmlns="http://www.w3.org/2000/svg">
<path d="M29.5312 58.8481C29.5312 56.2642 27.7256 54.1044 25.3125 53.5272V50.5557H22.5V53.5286C20.0869 54.1058 18.2812 56.2642 18.2812 58.8495C18.2812 61.2144 19.7902 63.3054 22.0373 64.0525L24.885 65.0018C25.9833 65.3669 26.7188 66.3865 26.7188 67.5408C26.7188 69.0167 25.5178 70.216 24.0398 70.216H23.7741C22.2947 70.216 21.0938 69.0167 21.0938 67.5408V66.0031H18.2812V67.5408C18.2812 70.1247 20.0869 72.2846 22.5 72.8617V75.8333H25.3125V72.8603C27.7256 72.2832 29.5312 70.1247 29.5312 67.5394C29.5312 65.1745 28.0223 63.0835 25.7752 62.3364L22.9275 61.3871C21.8292 61.022 21.0938 60.0025 21.0938 58.8481C21.0938 57.3722 22.2947 56.1729 23.7727 56.1729H24.0384C25.5178 56.1729 26.7188 57.3722 26.7188 58.8481V58.9815L29.5312 58.8481Z" fill="#E44918" fill-opacity="0.3"/>
<path d="M23.9062 44.9385C13.8262 44.9385 5.625 53.1285 5.625 63.1947C5.625 73.2609 13.8262 81.4509 23.9062 81.4509C33.9863 81.4509 42.1875 73.2609 42.1875 63.1947C42.1875 53.1285 33.9863 44.9385 23.9062 44.9385ZM23.9062 78.6423C15.3773 78.6423 8.4375 71.7119 8.4375 63.1947C8.4375 54.6775 15.3773 47.7471 23.9062 47.7471C32.4352 47.7471 39.375 54.6775 39.375 63.1947C39.375 71.7119 32.4352 78.6423 23.9062 78.6423Z" fill="#E44918" fill-opacity="0.3"/>
<path d="M59.0626 63.1945C59.0626 65.0229 60.2424 66.5677 61.8751 67.1491V70.2161H64.6876V67.1491C66.3202 66.5677 67.5001 65.0229 67.5001 63.1945C67.5001 60.8718 65.6073 58.9816 63.2813 58.9816C62.6316 58.9816 62.0241 59.1403 61.4743 59.4043L57.2443 55.1802L55.2559 57.1659L59.4859 61.39C59.2215 61.9391 59.0626 62.5458 59.0626 63.1945ZM63.2813 61.7902C64.0576 61.7902 64.6876 62.4194 64.6876 63.1945C64.6876 63.9697 64.0576 64.5988 63.2813 64.5988C62.5051 64.5988 61.8751 63.9697 61.8751 63.1945C61.8751 62.4194 62.5051 61.7902 63.2813 61.7902Z" fill="#E44918" fill-opacity="0.3"/>
<path d="M73.4456 41.6186C73.5806 41.113 73.7339 40.6032 73.8394 40.1061L77.3438 38.9251V28.4811L73.8408 27.3015C73.0533 23.5575 71.6034 20.0523 69.5194 16.8603L71.1562 13.5616L63.7622 6.17903L60.4589 7.81366C57.2653 5.73386 53.7553 4.28459 50.002 3.49677L48.8222 0H38.3653L37.1841 3.49817C33.4308 4.286 29.9222 5.73526 26.7272 7.81507L23.4253 6.17903L16.0312 13.5644L17.6681 16.8631C15.5841 20.0538 14.1328 23.5604 13.3467 27.3043L9.84375 28.4825V38.9265L13.3481 40.1061C13.4536 40.6032 13.6069 41.113 13.7419 41.6186C5.63625 45.4425 0 53.6634 0 63.1946C0 76.3587 10.7241 87.0681 23.9062 87.0681C32.0681 87.0681 39.2794 82.9577 43.5952 76.7056C48.0319 83.1444 55.3739 87.0681 63.2812 87.0681C76.4634 87.0681 87.1875 76.3587 87.1875 63.1946C87.1875 53.6634 81.5513 45.4425 73.4456 41.6186ZM15.9525 38.7818L15.8048 37.9673L12.6562 36.9085V30.5005L15.8034 29.4403L15.9511 28.6257C16.6711 24.6922 18.1828 21.0396 20.4469 17.7675L20.9166 17.0878L19.447 14.1247L23.985 9.59294L26.9522 11.0605L27.6328 10.59C30.9066 8.33186 34.5656 6.8208 38.5059 6.10039L39.3216 5.95153L40.3847 2.80865H46.8028L47.8631 5.95012L48.6788 6.09898C52.6205 6.8194 56.2781 8.32905 59.5519 10.5886L60.2325 11.0591L63.1997 9.59154L67.7377 14.1233L66.2681 17.0864L66.7378 17.7661C69.0019 21.0382 70.515 24.6922 71.2336 28.6243L71.3812 29.4389L74.5312 30.4991V36.9071L71.3841 37.9673L71.2364 38.7818C71.1295 39.366 70.9931 39.9615 70.8412 40.5639C70.2084 40.3533 69.563 40.1749 68.9077 40.0162V36.254C70.5403 35.6726 71.7202 34.1279 71.7202 32.2995C71.7202 30.2393 70.2309 28.5274 68.272 28.1637C65.7 16.6679 55.5089 8.42595 43.5938 8.42595C29.6367 8.42595 18.2812 19.7659 18.2812 33.7038C18.2812 35.7695 18.5442 37.8185 19.0462 39.8196C18.1237 40.0106 17.228 40.269 16.3491 40.5639C16.1958 39.9629 16.0594 39.366 15.9525 38.7818ZM27.8297 39.6708C27.1055 37.7679 26.7188 35.7667 26.7188 33.7038C26.7188 24.4114 34.2886 16.8519 43.5938 16.8519C50.8486 16.8519 57.1486 21.3935 59.4998 28.0865H59.0625C56.7366 28.0865 54.8438 29.9767 54.8438 32.2995C54.8438 34.1279 56.0236 35.6726 57.6562 36.254V40.0064C51.9792 41.384 46.9547 44.8078 43.5952 49.6836C39.9881 44.4581 34.3491 40.7535 27.8297 39.6708ZM21.8517 39.425C21.3581 37.5558 21.0938 35.6389 21.0938 33.7038C21.0938 21.3148 31.1878 11.2346 43.5938 11.2346C53.9466 11.2346 62.8439 18.2295 65.3737 28.0865H62.4502C59.9808 19.7673 52.3898 14.0432 43.5938 14.0432C32.7375 14.0432 23.9062 22.8624 23.9062 33.7038C23.9062 35.6432 24.1945 37.5376 24.7444 39.3632C24.4645 39.3534 24.1889 39.3211 23.9062 39.3211C23.213 39.3211 22.5309 39.3674 21.8517 39.425V39.425ZM67.5 33.7038H59.0625C58.2863 33.7038 57.6562 33.0732 57.6562 32.2995C57.6562 31.5257 58.2863 30.8951 59.0625 30.8951H67.5C68.2762 30.8951 68.9062 31.5257 68.9062 32.2995C68.9062 33.0732 68.2762 33.7038 67.5 33.7038ZM60.4688 36.5124H66.0938V39.5008C65.1698 39.3927 64.2347 39.3211 63.2812 39.3211C62.3334 39.3211 61.3969 39.3871 60.4688 39.498V36.5124ZM23.9062 84.2595C12.2752 84.2595 2.8125 74.8098 2.8125 63.1946C2.8125 51.5794 12.2752 42.1297 23.9062 42.1297C35.5373 42.1297 45 51.5794 45 63.1946C45 74.8098 35.5373 84.2595 23.9062 84.2595ZM51.4012 53.3166L53.3377 55.2503L55.3261 53.2646L53.3897 51.3309C55.7339 49.3774 58.6645 48.1093 61.875 47.8186V50.5557H64.6875V47.8186C67.898 48.1093 70.8272 49.3789 73.1728 51.3309L71.2364 53.2646L73.2248 55.2503L75.1613 53.3166C77.1173 55.6576 78.3872 58.5842 78.6783 61.7903H75.9375V64.5989H78.6783C78.3872 67.805 77.1159 70.7302 75.1613 73.0726L73.2248 71.1389L71.2364 73.1246L73.1728 75.0583C70.8286 77.0117 67.898 78.2799 64.6875 78.5705V75.8335H61.875V78.5705C58.6645 78.2799 55.7353 77.0103 53.3897 75.0583L55.3261 73.1246L53.3377 71.1389L51.4012 73.0726C49.4452 70.7316 48.1753 67.805 47.8842 64.5989H50.625V61.7903H47.8842C48.1753 58.5842 49.4452 55.659 51.4012 53.3166ZM63.2812 84.2595C55.8591 84.2595 49.0008 80.3428 45.1955 74.0023C45.7467 72.9238 46.2234 71.8045 46.6073 70.6403C49.4663 77.0019 55.8577 81.4508 63.2812 81.4508C73.3613 81.4508 81.5625 73.2608 81.5625 63.1946C81.5625 53.1284 73.3613 44.9384 63.2812 44.9384C55.8577 44.9384 49.4662 49.3873 46.6059 55.7489C46.222 54.5847 45.7453 53.464 45.1941 52.3869C49.0008 46.0464 55.8591 42.1297 63.2812 42.1297C74.9123 42.1297 84.375 51.5794 84.375 63.1946C84.375 74.8098 74.9123 84.2595 63.2812 84.2595Z" fill="#E44918" fill-opacity="0.3"/>
<path d="M29.5312 33.7039H32.3438C32.3438 29.4066 34.7386 25.5489 38.5945 23.6362L37.3416 21.1211C32.5252 23.5127 29.5312 28.3337 29.5312 33.7039Z" fill="#E44918" fill-opacity="0.3"/>
<path d="M41.0934 22.7471C41.909 22.5631 42.7499 22.469 43.5936 22.469V19.6606C42.5404 19.6606 41.4899 19.7772 40.469 20.0089L41.0934 22.7471Z" fill="#E44918" fill-opacity="0.3"/>
</svg>
