<svg width="90" height="90" viewBox="0 0 90 90" fill="none" xmlns="http://www.w3.org/2000/svg">
<path d="M83.0125 26.8573C80.5676 24.0636 77.2696 22.1543 73.6295 21.4251C70.6849 10.7088 60.8575 2.8125 49.2188 2.8125C44.9833 2.8121 40.8154 3.87436 37.0969 5.902C33.3783 7.92964 30.2279 10.8578 27.9341 14.4184C26.6653 14.0676 25.3389 13.9749 24.0336 14.1458C22.7283 14.3167 21.4706 14.7478 20.3348 15.4135C19.1991 16.0792 18.2084 16.966 17.4216 18.0213C16.6347 19.0767 16.0675 20.2793 15.7537 21.5578C12.9692 22.2255 10.4003 23.5907 8.28891 25.5249C6.1775 27.4592 4.59297 29.8989 3.68446 32.6144C2.77594 35.3299 2.57332 38.2319 3.09566 41.0474C3.618 43.8628 4.84812 46.499 6.67025 48.7079L8.83868 46.9171C7.14194 44.8597 6.06516 42.3624 5.73391 39.7162C5.40267 37.0701 5.83062 34.3844 6.96786 31.9722C8.10509 29.5601 9.90473 27.521 12.1568 26.0929C14.409 24.6647 17.0207 23.9064 19.6875 23.9062C20.1146 23.9062 20.5453 23.9255 20.9676 23.9636L21.2199 21.1624C20.714 21.1169 20.1984 21.0938 19.6875 21.0938C19.4099 21.0938 19.1339 21.1006 18.8595 21.1143C19.4841 19.6692 20.5759 18.4756 21.9598 17.7251C23.3437 16.9745 24.9395 16.7104 26.4915 16.975C26.1381 17.6958 25.8141 18.4336 25.5283 19.1911L28.1599 20.1839C30.0196 15.2555 33.5493 11.1356 38.1342 8.54194C42.7191 5.94826 48.0686 5.04514 53.2508 5.9899C58.4331 6.93465 63.1197 9.66741 66.4944 13.7122C69.869 17.7569 71.7178 22.8573 71.7188 28.125H74.5313C74.5311 26.9032 74.4427 25.6831 74.267 24.4741C77.1781 25.3388 79.7333 27.1183 81.5539 29.5489C83.3745 31.9795 84.3638 34.9319 84.375 37.9688C84.3814 40.8639 83.4883 43.6896 81.819 46.055L84.1186 47.6745C86.2919 44.5819 87.3643 40.8493 87.1637 37.0747C86.9632 33.3001 85.5014 29.7022 83.0125 26.8573V26.8573Z" fill="#E44918" fill-opacity="0.32"/>
<path d="M15.4688 64.6875C16.2454 64.6875 16.875 64.0579 16.875 63.2812C16.875 62.5046 16.2454 61.875 15.4688 61.875C14.6921 61.875 14.0625 62.5046 14.0625 63.2812C14.0625 64.0579 14.6921 64.6875 15.4688 64.6875Z" fill="#E44918" fill-opacity="0.32"/>
<path d="M19.6875 64.6875C20.4642 64.6875 21.0938 64.0579 21.0938 63.2812C21.0938 62.5046 20.4642 61.875 19.6875 61.875C18.9108 61.875 18.2812 62.5046 18.2812 63.2812C18.2812 64.0579 18.9108 64.6875 19.6875 64.6875Z" fill="#E44918" fill-opacity="0.32"/>
<path d="M23.9062 64.6875C24.6829 64.6875 25.3125 64.0579 25.3125 63.2812C25.3125 62.5046 24.6829 61.875 23.9062 61.875C23.1296 61.875 22.5 62.5046 22.5 63.2812C22.5 64.0579 23.1296 64.6875 23.9062 64.6875Z" fill="#E44918" fill-opacity="0.32"/>
<path d="M36.5625 61.875H28.125V64.6875H36.5625V61.875Z" fill="#E44918" fill-opacity="0.32"/>
<path d="M15.4688 53.4375C16.2454 53.4375 16.875 52.8079 16.875 52.0312C16.875 51.2546 16.2454 50.625 15.4688 50.625C14.6921 50.625 14.0625 51.2546 14.0625 52.0312C14.0625 52.8079 14.6921 53.4375 15.4688 53.4375Z" fill="#E44918" fill-opacity="0.32"/>
<path d="M19.6875 53.4375C20.4642 53.4375 21.0938 52.8079 21.0938 52.0312C21.0938 51.2546 20.4642 50.625 19.6875 50.625C18.9108 50.625 18.2812 51.2546 18.2812 52.0312C18.2812 52.8079 18.9108 53.4375 19.6875 53.4375Z" fill="#E44918" fill-opacity="0.32"/>
<path d="M23.9062 53.4375C24.6829 53.4375 25.3125 52.8079 25.3125 52.0312C25.3125 51.2546 24.6829 50.625 23.9062 50.625C23.1296 50.625 22.5 51.2546 22.5 52.0312C22.5 52.8079 23.1296 53.4375 23.9062 53.4375Z" fill="#E44918" fill-opacity="0.32"/>
<path d="M36.5625 50.625H28.125V53.4375H36.5625V50.625Z" fill="#E44918" fill-opacity="0.32"/>
<path d="M36.5625 33.75H15.4688C13.9774 33.7517 12.5477 34.3449 11.4932 35.3994C10.4386 36.4539 9.84546 37.8837 9.84375 39.375V42.1875C9.84365 42.9861 10.014 43.7756 10.3435 44.5031C10.6729 45.2307 11.1539 45.8795 11.7542 46.4062C11.1539 46.933 10.6729 47.5818 10.3435 48.3094C10.014 49.0369 9.84365 49.8264 9.84375 50.625V53.4375C9.84365 54.2361 10.014 55.0256 10.3435 55.7531C10.6729 56.4807 11.1539 57.1295 11.7542 57.6562C11.1539 58.183 10.6729 58.8318 10.3435 59.5594C10.014 60.2869 9.84365 61.0764 9.84375 61.875V64.6875C9.84546 66.1788 10.4386 67.6086 11.4932 68.6631C12.5477 69.7176 13.9774 70.3108 15.4688 70.3125H36.5625C38.0538 70.3108 39.4836 69.7176 40.5381 68.6631C41.5926 67.6086 42.1858 66.1788 42.1875 64.6875V61.875C42.1876 61.0764 42.0172 60.2869 41.6878 59.5594C41.3583 58.8318 40.8774 58.183 40.2771 57.6562C40.8774 57.1295 41.3583 56.4807 41.6878 55.7531C42.0172 55.0256 42.1876 54.2361 42.1875 53.4375V50.625C42.1876 49.8264 42.0172 49.0369 41.6878 48.3094C41.3583 47.5818 40.8774 46.933 40.2771 46.4062C40.8774 45.8795 41.3583 45.2307 41.6878 44.5031C42.0172 43.7756 42.1876 42.9861 42.1875 42.1875V39.375C42.1858 37.8837 41.5926 36.4539 40.5381 35.3994C39.4836 34.3449 38.0538 33.7517 36.5625 33.75ZM39.375 61.875V64.6875C39.3741 65.4332 39.0776 66.148 38.5503 66.6753C38.023 67.2026 37.3082 67.4991 36.5625 67.5H15.4688C14.7231 67.4991 14.0082 67.2026 13.481 66.6753C12.9537 66.148 12.6571 65.4332 12.6562 64.6875V61.875C12.6571 61.1293 12.9537 60.4145 13.481 59.8872C14.0082 59.3599 14.7231 59.0634 15.4688 59.0625H36.5625C37.3082 59.0634 38.023 59.3599 38.5503 59.8872C39.0776 60.4145 39.3741 61.1293 39.375 61.875ZM39.375 50.625V53.4375C39.3741 54.1832 39.0776 54.898 38.5503 55.4253C38.023 55.9526 37.3082 56.2491 36.5625 56.25H15.4688C14.7231 56.2491 14.0082 55.9526 13.481 55.4253C12.9537 54.898 12.6571 54.1832 12.6562 53.4375V50.625C12.6571 49.8793 12.9537 49.1645 13.481 48.6372C14.0082 48.1099 14.7231 47.8134 15.4688 47.8125H36.5625C37.3082 47.8134 38.023 48.1099 38.5503 48.6372C39.0776 49.1645 39.3741 49.8793 39.375 50.625ZM15.4688 45C14.7231 44.9991 14.0082 44.7026 13.481 44.1753C12.9537 43.648 12.6571 42.9332 12.6562 42.1875V39.375C12.6571 38.6293 12.9537 37.9145 13.481 37.3872C14.0082 36.8599 14.7231 36.5634 15.4688 36.5625H36.5625C37.3082 36.5634 38.023 36.8599 38.5503 37.3872C39.0776 37.9145 39.3741 38.6293 39.375 39.375V42.1875C39.3741 42.9332 39.0776 43.648 38.5503 44.1753C38.023 44.7026 37.3082 44.9991 36.5625 45H15.4688Z" fill="#E44918" fill-opacity="0.32"/>
<path d="M15.4688 42.1875C16.2454 42.1875 16.875 41.5579 16.875 40.7812C16.875 40.0046 16.2454 39.375 15.4688 39.375C14.6921 39.375 14.0625 40.0046 14.0625 40.7812C14.0625 41.5579 14.6921 42.1875 15.4688 42.1875Z" fill="#E44918" fill-opacity="0.32"/>
<path d="M19.6875 42.1875C20.4642 42.1875 21.0938 41.5579 21.0938 40.7812C21.0938 40.0046 20.4642 39.375 19.6875 39.375C18.9108 39.375 18.2812 40.0046 18.2812 40.7812C18.2812 41.5579 18.9108 42.1875 19.6875 42.1875Z" fill="#E44918" fill-opacity="0.32"/>
<path d="M23.9062 42.1875C24.6829 42.1875 25.3125 41.5579 25.3125 40.7812C25.3125 40.0046 24.6829 39.375 23.9062 39.375C23.1296 39.375 22.5 40.0046 22.5 40.7812C22.5 41.5579 23.1296 42.1875 23.9062 42.1875Z" fill="#E44918" fill-opacity="0.32"/>
<path d="M36.5625 39.375H28.125V42.1875H36.5625V39.375Z" fill="#E44918" fill-opacity="0.32"/>
<path d="M74.5312 40.7812H63.2812C61.7899 40.783 60.3602 41.3761 59.3057 42.4307C58.2511 43.4852 57.658 44.9149 57.6562 46.4062V54.8438C57.658 56.3351 58.2511 57.7648 59.3057 58.8193C60.3602 59.8739 61.7899 60.467 63.2812 60.4688H74.5312C76.0226 60.467 77.4523 59.8739 78.5068 58.8193C79.5614 57.7648 80.1545 56.3351 80.1562 54.8438V46.4062C80.1545 44.9149 79.5614 43.4852 78.5068 42.4307C77.4523 41.3761 76.0226 40.783 74.5312 40.7812ZM77.3438 46.4062V47.163C76.4896 46.6666 75.5192 46.4055 74.5312 46.4062H71.5136C70.9909 46.4081 70.4782 46.2634 70.0336 45.9886C69.589 45.7138 69.2302 45.32 68.9981 44.8517L68.5176 43.8906C68.4669 43.7892 68.4121 43.691 68.3561 43.5938H74.5312C75.2769 43.5946 75.9918 43.8912 76.519 44.4185C77.0463 44.9457 77.3429 45.6606 77.3438 46.4062ZM77.3438 54.8438C77.3429 55.5894 77.0463 56.3043 76.519 56.8315C75.9918 57.3588 75.2769 57.6554 74.5312 57.6562H63.2812C62.5356 57.6554 61.8207 57.3588 61.2935 56.8315C60.7662 56.3043 60.4696 55.5894 60.4688 54.8438V46.4062C60.4696 45.6606 60.7662 44.9457 61.2935 44.4185C61.8207 43.8912 62.5356 43.5946 63.2812 43.5938H63.4864C64.0091 43.5919 64.5218 43.7366 64.9664 44.0114C65.411 44.2862 65.7698 44.68 66.0019 45.1483L66.4824 46.1094C66.9468 47.046 67.6643 47.8338 68.5535 48.3833C69.4428 48.9329 70.4682 49.2223 71.5136 49.2188H74.5312C75.2769 49.2196 75.9918 49.5162 76.519 50.0435C77.0463 50.5707 77.3429 51.2856 77.3438 52.0312V54.8438Z" fill="#E44918" fill-opacity="0.32"/>
<path d="M74.5312 67.5H63.2812C61.7899 67.5017 60.3602 68.0949 59.3057 69.1494C58.2511 70.2039 57.658 71.6337 57.6562 73.125V81.5625C57.658 83.0538 58.2511 84.4836 59.3057 85.5381C60.3602 86.5926 61.7899 87.1858 63.2812 87.1875H74.5312C76.0226 87.1858 77.4523 86.5926 78.5068 85.5381C79.5614 84.4836 80.1545 83.0538 80.1562 81.5625V73.125C80.1545 71.6337 79.5614 70.2039 78.5068 69.1494C77.4523 68.0949 76.0226 67.5017 74.5312 67.5ZM77.3438 73.125V73.8818C76.4896 73.3854 75.5192 73.1242 74.5312 73.125H71.5136C70.9909 73.1268 70.4782 72.9821 70.0336 72.7074C69.589 72.4326 69.2302 72.0387 68.9981 71.5704L68.5176 70.6093C68.4669 70.5079 68.4121 70.4097 68.3561 70.3125H74.5312C75.2769 70.3134 75.9918 70.6099 76.519 71.1372C77.0463 71.6645 77.3429 72.3793 77.3438 73.125ZM77.3438 81.5625C77.3429 82.3082 77.0463 83.023 76.519 83.5503C75.9918 84.0776 75.2769 84.3741 74.5312 84.375H63.2812C62.5356 84.3741 61.8207 84.0776 61.2935 83.5503C60.7662 83.023 60.4696 82.3082 60.4688 81.5625V73.125C60.4696 72.3793 60.7662 71.6645 61.2935 71.1372C61.8207 70.6099 62.5356 70.3134 63.2812 70.3125H63.4864C64.0091 70.3107 64.5218 70.4554 64.9664 70.7301C65.411 71.0049 65.7698 71.3988 66.0019 71.8671L66.4824 72.8282C66.9468 73.7648 67.6643 74.5525 68.5535 75.1021C69.4428 75.6516 70.4682 75.9411 71.5136 75.9375H74.5312C75.2769 75.9384 75.9918 76.2349 76.519 76.7622C77.0463 77.2895 77.3429 78.0043 77.3438 78.75V81.5625Z" fill="#E44918" fill-opacity="0.32"/>
<path d="M43.5938 49.2188V52.0312H47.8125V78.75C47.8125 79.123 47.9607 79.4806 48.2244 79.7443C48.4881 80.0081 48.8458 80.1562 49.2188 80.1562H54.8438V77.3438H50.625V52.0312H54.8438V49.2188H43.5938Z" fill="#E44918" fill-opacity="0.32"/>
</svg>
