<svg width="90" height="90" viewBox="0 0 90 90" fill="none" xmlns="http://www.w3.org/2000/svg">
<path d="M82.0955 53.9826L64.8562 36.7438C62.83 34.7176 60.4603 33.1897 57.8053 32.1941C56.8097 29.5391 55.2818 27.1693 53.2558 25.1431L36.0167 7.90397C32.2622 4.14949 27.2703 2.08179 21.9607 2.08179C16.6511 2.08179 11.6589 4.14949 7.90425 7.90397C4.14924 11.6585 2.08154 16.6506 2.08154 21.9602C2.08154 27.2698 4.14924 32.2621 7.9039 36.0164L25.143 53.2555C27.1692 55.2816 29.5391 56.8093 32.194 57.8051C33.1897 60.46 34.7175 62.8299 36.7438 64.8561L53.9828 82.0952C57.7373 85.8497 62.7295 87.9174 68.0391 87.9174C73.3487 87.9174 78.3408 85.8497 82.0953 82.095C89.8462 74.3445 89.8462 61.7332 82.0955 53.9826ZM27.0588 51.3406L9.81902 34.1017C6.57588 30.8587 4.78996 26.5468 4.78996 21.9604C4.78996 17.3741 6.57606 13.0622 9.81902 9.81909C13.062 6.57595 17.374 4.79003 21.9605 4.79003C26.5469 4.79003 30.8586 6.57613 34.1018 9.81909L51.3409 27.058C52.594 28.3113 53.6269 29.7163 54.4279 31.2542C54.3363 31.2372 54.244 31.2229 54.1525 31.2073C54.0909 31.1967 54.0296 31.1858 53.9679 31.1758C53.7283 31.1371 53.488 31.1022 53.2468 31.0723C53.2242 31.0695 53.2011 31.0674 53.1783 31.0647C52.9572 31.0382 52.7355 31.016 52.5131 30.9969C52.453 30.9918 52.3931 30.987 52.3328 30.9823C52.1168 30.9658 51.9002 30.952 51.6833 30.9427C51.6532 30.9415 51.6233 30.9392 51.5935 30.938C51.3477 30.9283 51.1013 30.9236 50.8547 30.923C50.8362 30.923 50.8181 30.922 50.7996 30.922C50.7673 30.922 50.7346 30.9239 50.7023 30.9241C50.4665 30.9253 50.2305 30.9306 49.994 30.9401C49.9475 30.9419 49.9012 30.9429 49.8546 30.9452C49.8306 30.9462 49.8068 30.9466 49.7827 30.9477C49.4041 30.4458 48.99 29.9691 48.5454 29.5245L31.6345 12.6135C29.0943 10.0734 25.7171 8.67459 22.1247 8.67459C18.4662 8.67459 15.0443 10.1186 12.4895 12.7406C7.38236 17.9821 7.49574 26.5147 12.7421 31.7613L29.5255 48.5448C29.9652 48.9844 30.438 49.3922 30.9341 49.7673L30.9312 49.7993L31.6034 50.2458C31.7375 50.3349 31.8731 50.4214 32.01 50.5054C32.9597 51.0882 33.974 51.5464 35.0301 51.8748C35.0394 51.8776 35.0489 51.8811 35.0582 51.8839C35.183 51.9224 35.3089 51.9579 35.4347 51.9925C35.4627 52.0003 35.4903 52.0093 35.5184 52.0168C35.6348 52.0483 35.7522 52.0766 35.8696 52.1047C35.9076 52.1138 35.945 52.1244 35.9832 52.133C36.0916 52.1581 36.2011 52.1803 36.3105 52.2026C36.3579 52.2123 36.4049 52.2235 36.4525 52.2328C36.5453 52.2509 36.6388 52.2659 36.7322 52.2819C36.797 52.2931 36.8614 52.3058 36.9264 52.316C37.0011 52.3278 37.0767 52.3369 37.1517 52.3474C37.2358 52.3592 37.3196 52.3724 37.404 52.3824C37.4637 52.3896 37.5239 52.3946 37.5838 52.4011C37.684 52.412 37.784 52.4234 37.8846 52.432C37.9322 52.436 37.98 52.4381 38.0277 52.4415C38.141 52.4499 38.2542 52.4587 38.368 52.4642C38.4017 52.4657 38.4356 52.4659 38.4694 52.4673C38.5956 52.4726 38.7218 52.4777 38.8484 52.4793L38.8577 52.4795L40.2446 52.4735L40.2441 52.4283C43.3828 52.1539 46.2937 50.796 48.5456 48.5441C50.7814 46.3082 52.1292 43.4324 52.4217 40.3243C52.4481 40.328 52.4743 40.3315 52.5005 40.3354C52.6126 40.3513 52.7244 40.3693 52.8357 40.3888C52.877 40.396 52.9185 40.4029 52.96 40.4104C53.1103 40.4385 53.2597 40.4691 53.4082 40.5034C53.413 40.5045 53.4175 40.5057 53.4223 40.5071C53.5648 40.5403 53.7067 40.5774 53.8477 40.6162C53.8898 40.628 53.932 40.6405 53.9742 40.6526C54.082 40.6839 54.1894 40.717 54.2961 40.7516C54.3383 40.7653 54.3806 40.7788 54.4225 40.7929C54.5545 40.8377 54.6856 40.8845 54.8159 40.9344C54.8271 40.9388 54.8384 40.9425 54.8496 40.9469C54.9911 41.0016 55.1312 41.0601 55.2702 41.1209C55.3079 41.1373 55.3451 41.1548 55.3826 41.1717C55.4861 41.2185 55.5889 41.2666 55.6911 41.3167C55.732 41.3368 55.773 41.357 55.8136 41.3776C55.9261 41.4345 56.0377 41.4934 56.1483 41.5546C56.1667 41.5646 56.1854 41.5742 56.2035 41.5844C55.6879 45.263 53.9798 48.7007 51.341 51.3397C48.5054 54.1754 44.7475 55.9362 40.7593 56.2974C40.2437 56.3442 39.7194 56.3681 39.2012 56.3681C38.8719 56.3681 38.5436 56.3552 38.2163 56.3366C36.6726 56.2489 35.1529 55.9581 33.6869 55.4626C31.1758 54.6145 28.9456 53.2274 27.0588 51.3406ZM46.5697 31.3797C42.869 32.1869 39.4444 34.043 36.7436 36.7436C34.0429 39.4445 32.1868 42.869 31.3797 46.5697L14.6567 29.8469C10.4524 25.6426 10.3502 18.8167 14.4287 14.6312C16.4693 12.5368 19.2023 11.3835 22.1243 11.3835C24.9934 11.3835 27.6906 12.5008 29.7192 14.5295L46.5697 31.3797ZM40.3019 49.6955C40.5798 47.3061 41.6403 45.0978 43.3689 43.3693C45.0947 41.6435 47.3069 40.5809 49.6975 40.3023C49.4198 42.6924 48.3591 44.9018 46.6303 46.6306C44.9043 48.3564 42.6946 49.4151 40.3019 49.6955ZM58.6197 43.4294L75.3427 60.1526C79.547 64.3567 79.6493 71.1824 75.5707 75.3681C73.5301 77.4625 70.7971 78.6158 67.8751 78.6158C65.006 78.6158 62.3086 77.4986 60.28 75.4697L43.4295 58.6194C47.1302 57.8123 50.5548 55.956 53.2556 53.2554C55.9565 50.5547 57.8126 47.1303 58.6197 43.4294ZM80.1804 80.1804C76.9372 83.4236 72.6254 85.2095 68.0391 85.2095C63.4528 85.2095 59.1407 83.4234 55.8976 80.1804L38.6585 62.9413C37.4052 61.6882 36.3723 60.2834 35.5713 58.7453C35.6625 58.7622 35.7541 58.7764 35.8455 58.7919C35.9084 58.8026 35.9714 58.8139 36.0345 58.8241C36.2707 58.862 36.5077 58.8965 36.7453 58.9258C36.7814 58.9304 36.8176 58.9334 36.8536 58.9378C37.0582 58.962 37.2634 58.9828 37.4687 59.0004C37.5414 59.0067 37.6142 59.0125 37.687 59.0181C37.8811 59.0327 38.0753 59.0447 38.2699 59.0536C38.3201 59.0559 38.3702 59.0594 38.4207 59.0614C38.6568 59.0705 38.8934 59.0749 39.1303 59.0758C39.1539 59.0758 39.1771 59.0772 39.2003 59.0772C39.2005 59.0772 39.2005 59.0772 39.2006 59.0772C39.3388 59.0772 39.4775 59.0754 39.6162 59.0724C39.6214 59.0724 39.6267 59.0724 39.6316 59.0723C39.8102 59.0684 39.9888 59.0615 40.1674 59.0531C40.1836 59.0524 40.1999 59.0522 40.2163 59.0513C40.5947 59.5532 41.0089 60.0297 41.4534 60.4745L58.3643 77.3854C60.9045 79.9254 64.282 81.3244 67.8744 81.3244C71.5329 81.3244 74.9548 79.8804 77.5096 77.2584C82.6169 72.0169 82.5035 63.4843 77.257 58.2377L60.4735 41.454C60.0339 41.0144 59.561 40.6068 59.065 40.2316L59.0678 40.2L58.3958 39.7533C58.2618 39.6644 58.1263 39.5779 57.9896 39.4939C57.9407 39.464 57.8906 39.4359 57.8414 39.4065C57.7531 39.3538 57.6651 39.3005 57.5756 39.2501C57.5039 39.2097 57.4309 39.1717 57.3585 39.1325C57.2903 39.0956 57.2228 39.0574 57.1541 39.0218C57.0674 38.9767 56.9797 38.9347 56.8922 38.8917C56.8366 38.8644 56.7814 38.8356 56.7255 38.8091C56.6329 38.7651 56.5392 38.7242 56.4457 38.6823C56.3937 38.6593 56.3422 38.6345 56.2899 38.6118C56.1931 38.5702 56.0952 38.5313 55.9975 38.4919C55.9474 38.4719 55.8981 38.4503 55.848 38.4308C55.751 38.393 55.6533 38.3584 55.5555 38.3228C55.5035 38.304 55.4518 38.2836 55.3998 38.2654C55.3024 38.2314 55.2042 38.2003 55.1061 38.1689C55.0526 38.1516 54.9997 38.133 54.9461 38.1163C54.8491 38.0864 54.7512 38.0592 54.6534 38.0316C54.5979 38.0158 54.5425 37.9985 54.4868 37.9836C54.395 37.9588 54.3024 37.9368 54.2103 37.9142C54.1475 37.8987 54.0851 37.8816 54.0222 37.8671C53.9354 37.8468 53.8478 37.8294 53.7607 37.8112C53.6916 37.7966 53.6227 37.7806 53.5534 37.767C53.4715 37.7512 53.3889 37.7379 53.3066 37.7233C53.2312 37.7101 53.1558 37.6955 53.08 37.6835C53.0053 37.6718 52.9297 37.6624 52.8549 37.6519C52.7708 37.6399 52.687 37.6271 52.6026 37.6169C52.5362 37.6088 52.4692 37.6032 52.4026 37.596C52.3091 37.5862 52.2157 37.5753 52.1219 37.5672C52.0633 37.5621 52.0044 37.5594 51.9459 37.555C51.8436 37.5477 51.7411 37.5396 51.6383 37.5345C51.5866 37.532 51.5346 37.5315 51.4829 37.5294C51.3781 37.5253 51.2735 37.5208 51.1684 37.519L51.148 37.5188C51.1477 37.5188 51.1473 37.5188 51.147 37.5188C51.1465 37.5188 51.1457 37.5188 51.1452 37.5188C51.0849 37.518 51.0245 37.5176 50.964 37.5176C47.3703 37.5176 43.9931 38.9156 41.4547 41.454C39.215 43.6936 37.8668 46.5745 37.5771 49.6735C37.5504 49.6698 37.5237 49.6663 37.497 49.6622C37.3864 49.6464 37.2765 49.6288 37.1667 49.6095C37.1238 49.6019 37.0805 49.5949 37.0377 49.587C36.8888 49.559 36.7404 49.5288 36.5931 49.4947C36.5834 49.4926 36.5738 49.4896 36.5641 49.4875C36.4266 49.4552 36.2901 49.4198 36.154 49.3822C36.1097 49.3699 36.0659 49.3569 36.0218 49.3441C35.9162 49.3133 35.8112 49.2811 35.7068 49.247C35.6629 49.2328 35.6191 49.2189 35.5753 49.204C35.4461 49.16 35.3173 49.1142 35.1899 49.0653C35.1763 49.06 35.1626 49.0556 35.1491 49.0503C35.0085 48.9959 34.8691 48.9377 34.7305 48.8772C34.6919 48.8603 34.6534 48.8424 34.6151 48.825C34.5129 48.7789 34.4113 48.7313 34.3106 48.6821C34.2686 48.6615 34.2264 48.6408 34.1846 48.6197C34.0738 48.5638 33.9643 48.5056 33.8555 48.4457C33.8358 48.4348 33.8158 48.4246 33.7963 48.4135C34.3118 44.7349 36.0199 41.2972 38.6587 38.6584C41.4944 35.8227 45.2522 34.0619 49.2407 33.7007C49.7566 33.6538 50.2811 33.6301 50.7993 33.6301C51.2698 33.6301 51.7385 33.649 52.2048 33.687C52.456 33.7074 52.7061 33.7343 52.9559 33.7658C54.0966 33.9092 55.2198 34.1657 56.3131 34.5353C58.8247 35.384 61.0548 36.7712 62.9416 38.6582L80.1807 55.8973C86.8751 62.5924 86.8749 73.4857 80.1804 80.1804Z" fill="#E44918" fill-opacity="0.3"/>
<path d="M76.0477 12.0347L65.8416 22.2408L67.7564 24.1557L77.9626 13.9496L76.0477 12.0347Z" fill="#E44918" fill-opacity="0.3"/>
<path d="M53.0037 0H50.2957V14.434H53.0037V0Z" fill="#E44918" fill-opacity="0.3"/>
<path d="M89.9999 36.9967H75.5659V39.7048H89.9999V36.9967Z" fill="#E44918" fill-opacity="0.3"/>
<path d="M22.2381 65.8394L12.032 76.0455L13.9469 77.9604L24.153 67.7542L22.2381 65.8394Z" fill="#E44918" fill-opacity="0.3"/>
<path d="M14.434 50.2955H0V53.0036H14.434V50.2955Z" fill="#E44918" fill-opacity="0.3"/>
<path d="M39.7049 75.5659H36.9968V89.9999H39.7049V75.5659Z" fill="#E44918" fill-opacity="0.3"/>
</svg>
