<svg width="90" height="90" viewBox="0 0 90 90" fill="none" xmlns="http://www.w3.org/2000/svg">
<path d="M81.5625 28.125C78.1678 28.125 75.3272 30.5452 74.6733 33.75H61.1719L63.2812 30.9375C65.0953 28.5173 66.0938 25.5206 66.0938 22.5C66.0938 14.7459 59.7853 8.4375 52.0312 8.4375C44.2772 8.4375 37.9688 14.7459 37.9688 22.5C37.9688 25.5206 38.9672 28.5173 40.7812 30.9375L42.8906 33.75H15.3267C14.6728 30.5452 11.8322 28.125 8.4375 28.125C4.56047 28.125 1.40625 31.2792 1.40625 35.1562V74.5312C1.40625 78.4083 4.56047 81.5625 8.4375 81.5625H81.5625C85.4395 81.5625 88.5938 78.4083 88.5938 74.5312V35.1562C88.5938 31.2792 85.4395 28.125 81.5625 28.125ZM74.5312 67.5H68.9062V61.875H74.5312V67.5ZM74.5312 59.0625H68.9062C67.3552 59.0625 66.0938 60.3239 66.0938 61.875V67.5C66.0938 69.0511 67.3552 70.3125 68.9062 70.3125H74.5312V73.125H68.9062C67.3552 73.125 66.0938 74.3864 66.0938 75.9375V78.75H63.2812V63.2812C63.2812 60.9553 61.3884 59.0625 59.0625 59.0625H46.4062C44.0803 59.0625 42.1875 60.9553 42.1875 63.2812V78.75H39.375V60.4688C39.375 59.6911 38.7464 59.0625 37.9688 59.0625H28.125C27.3473 59.0625 26.7188 59.6911 26.7188 60.4688V61.5783C26.7188 67.6884 24.9792 73.6031 21.7153 78.75H18.18C21.9192 73.3514 23.9062 67.0458 23.9062 60.4688C23.9062 59.6911 23.2777 59.0625 22.5 59.0625H15.4688V56.25H19.6875C22.0134 56.25 23.9062 54.3572 23.9062 52.0312V48.0403C23.9062 46.8281 24.6797 45.7566 25.83 45.3727L32.715 43.0777C35.0156 42.3098 36.5625 40.1653 36.5625 37.7409V36.5625H39.375V38.9194C39.375 41.9498 37.4428 44.6316 34.567 45.5892L28.6425 47.5636C27.4922 47.9475 26.7188 49.0191 26.7188 50.2327V52.0312C26.7188 54.3572 28.6116 56.25 30.9375 56.25H59.0625C61.3884 56.25 63.2812 54.3572 63.2812 52.0312V36.5625H66.0938V52.0312C66.0938 54.3572 67.9866 56.25 70.3125 56.25H74.5312V59.0625ZM60.4688 78.75H45V63.2812C45 62.505 45.63 61.875 46.4062 61.875H59.0625C59.8387 61.875 60.4688 62.505 60.4688 63.2812V78.75ZM36.5625 78.75H25.0144C27.9281 73.6031 29.4806 67.8262 29.5298 61.875H36.5625V78.75ZM15.4688 53.4375V36.5625H33.75V37.7409C33.75 38.9531 32.9766 40.0247 31.8263 40.4086L24.9412 42.7036C22.6406 43.4714 21.0938 45.6159 21.0938 48.0403V52.0312C21.0938 52.8075 20.4638 53.4375 19.6875 53.4375H15.4688ZM74.5312 53.4375H70.3125C69.5362 53.4375 68.9062 52.8075 68.9062 52.0312V36.5625H74.5312V53.4375ZM52.0312 11.25C58.2342 11.25 63.2812 16.297 63.2812 22.5C63.2812 24.9173 62.4825 27.315 61.0313 29.2514L52.0312 41.2495L43.0312 29.2514C41.58 27.315 40.7812 24.9173 40.7812 22.5C40.7812 16.297 45.8283 11.25 52.0312 11.25ZM56.25 43.5938C56.25 45.1181 54.3178 46.4062 52.0312 46.4062C49.7447 46.4062 47.8125 45.1181 47.8125 43.5938C47.8125 42.9188 48.2189 42.2663 48.8939 41.7544L50.9062 44.4375C51.1706 44.7919 51.5883 45 52.0312 45C52.4742 45 52.8905 44.7919 53.1562 44.4375L55.1686 41.7544C55.8436 42.2663 56.25 42.9188 56.25 43.5938ZM47.2008 39.4959C45.8142 40.5408 45 42.0131 45 43.5938C45 46.6959 48.1542 49.2188 52.0312 49.2188C55.9083 49.2188 59.0625 46.6959 59.0625 43.5938C59.0625 42.0131 58.2483 40.5408 56.8617 39.4959L59.0625 36.5625H60.4688V52.0312C60.4688 52.8075 59.8387 53.4375 59.0625 53.4375H30.9375C30.1612 53.4375 29.5312 52.8075 29.5312 52.0312V50.2327L35.4572 48.2569C39.4819 46.9153 42.1875 43.162 42.1875 38.9194V36.5625H45L47.2008 39.4959ZM4.21875 35.1562C4.21875 32.8303 6.11156 30.9375 8.4375 30.9375C10.7634 30.9375 12.6562 32.8303 12.6562 35.1562V68.9091C11.4806 68.0245 10.0195 67.5 8.4375 67.5C6.85547 67.5 5.39438 68.0245 4.21875 68.9091V35.1562ZM4.21875 74.5312C4.21875 72.2053 6.11156 70.3125 8.4375 70.3125C10.7634 70.3125 12.6562 72.2053 12.6562 74.5312C12.6562 75.3089 13.2848 75.9375 14.0625 75.9375C14.8402 75.9375 15.4688 75.3089 15.4688 74.5312V61.875H21.0614C20.7956 67.5098 18.9323 72.8859 15.6361 77.5055L14.7459 78.75H8.4375C6.11156 78.75 4.21875 76.8572 4.21875 74.5312ZM81.5625 78.75H68.9062V75.9375H75.9375C76.7152 75.9375 77.3438 75.3089 77.3438 74.5312C77.3438 72.2053 79.2366 70.3125 81.5625 70.3125C83.8884 70.3125 85.7812 72.2053 85.7812 74.5312C85.7812 76.8572 83.8884 78.75 81.5625 78.75ZM85.7812 68.9091C84.6056 68.0245 83.1445 67.5 81.5625 67.5C79.9805 67.5 78.5194 68.0245 77.3438 68.9091V35.1562C77.3438 32.8303 79.2366 30.9375 81.5625 30.9375C83.8884 30.9375 85.7812 32.8303 85.7812 35.1562V68.9091Z" fill="#E44918" fill-opacity="0.3"/>
<path d="M52.0312 28.125C55.9083 28.125 59.0625 24.9708 59.0625 21.0938C59.0625 17.2167 55.9083 14.0625 52.0312 14.0625C48.1542 14.0625 45 17.2167 45 21.0938C45 24.9708 48.1542 28.125 52.0312 28.125ZM52.0312 16.875C54.3572 16.875 56.25 18.7678 56.25 21.0938C56.25 23.4197 54.3572 25.3125 52.0312 25.3125C49.7053 25.3125 47.8125 23.4197 47.8125 21.0938C47.8125 18.7678 49.7053 16.875 52.0312 16.875Z" fill="#E44918" fill-opacity="0.3"/>
</svg>
