<svg width="90" height="90" viewBox="0 0 90 90" fill="none" xmlns="http://www.w3.org/2000/svg">
<path d="M67.4999 45.0001C67.4999 44.5248 67.4577 44.0607 67.4281 43.5939H88.5852L88.4867 42.0948C87.8033 31.7378 83.4692 22.3567 76.7713 15.2171L78.7499 13.2385L85.4492 19.9379L87.373 2.62698L70.062 4.55073L76.7614 11.2501L74.7828 13.2287C67.6433 6.53073 58.2608 2.19526 47.9052 1.51323L46.4061 1.41479V22.5718C45.9392 22.5423 45.4752 22.5001 44.9999 22.5001C44.5246 22.5001 44.0605 22.5423 43.5936 22.5718V1.41479L42.0946 1.51323C20.3905 2.94339 2.94314 20.3907 1.51299 42.0948L1.41455 43.5939H22.5716C22.5421 44.0607 22.4999 44.5248 22.4999 45.0001C22.4999 45.4754 22.5421 45.9395 22.5716 46.4064H1.41455L1.51299 47.9054C2.94314 69.6095 20.3905 87.0568 42.0946 88.487L43.5936 88.5854V67.4284C44.0605 67.4579 44.5246 67.5001 44.9999 67.5001C45.4752 67.5001 45.9392 67.4579 46.4061 67.4284V88.5854L47.9052 88.487C69.6092 87.0568 87.0566 69.6095 88.4867 47.9054L88.5852 46.4064H67.4281C67.4577 45.9395 67.4999 45.4754 67.4999 45.0001V45.0001ZM84.1892 5.81073L83.3005 13.8123L76.1877 6.69948L84.1892 5.81073ZM85.5533 40.7814H67.0892C65.7983 34.0131 61.4755 28.3107 55.5833 25.1551L63.2811 17.4573L68.9061 23.0823L74.766 17.2224C80.6708 23.5464 84.6196 31.7195 85.5533 40.7814ZM49.2186 4.44667C58.2805 5.38042 66.4536 9.32917 72.7775 15.2354L68.9061 19.1054L63.2811 13.4804L52.8285 23.9331C51.6655 23.4985 50.4631 23.1484 49.2186 22.9107V4.44667ZM64.6874 45.0001C64.6874 49.202 63.3542 53.0903 61.1028 56.2909C60.1621 54.4093 58.4197 52.9946 56.2358 52.5545L51.2577 51.5532C50.5517 51.3521 49.9724 50.8796 49.6124 50.2637C50.383 49.5873 51.0172 48.7632 51.4349 47.8126H52.0311C54.3571 47.8126 56.2499 45.9198 56.2499 43.5939C56.2499 42.6939 55.9616 41.8642 55.4806 41.1779C55.9799 40.0149 56.2499 38.7578 56.2499 37.4865C56.2499 32.3242 52.0508 28.1251 46.8885 28.1251H43.1099C37.9489 28.1251 33.7499 32.3242 33.7499 37.4865C33.7499 38.7592 34.0199 40.0149 34.5191 41.1793C34.0381 41.8642 33.7499 42.6939 33.7499 43.5939C33.7499 45.9198 35.6427 47.8126 37.9686 47.8126H38.5649C38.9825 48.7646 39.6181 49.5887 40.3888 50.2651C40.0344 50.8782 39.4775 51.3451 38.8489 51.5265L33.7639 52.5531C31.58 52.9932 29.8377 54.4079 28.8969 56.2909C26.6469 53.0903 25.3124 49.202 25.3124 45.0001C25.3124 34.1439 34.1436 25.3126 44.9999 25.3126C55.8561 25.3126 64.6874 34.1439 64.6874 45.0001V45.0001ZM37.9686 45.0001C37.1938 45.0001 36.5624 44.3687 36.5624 43.5939C36.5624 42.819 37.1938 42.1876 37.9686 42.1876V45.0001ZM39.0655 39.3751H37.9686C37.5988 39.3751 37.2458 39.4384 36.9041 39.5284C36.6875 38.8703 36.5624 38.1826 36.5624 37.4865C36.5624 33.8753 39.5 30.9376 43.1113 30.9376H46.8899C50.4997 30.9376 53.4374 33.8753 53.4374 37.4865C53.4374 38.1826 53.3122 38.8703 53.0956 39.5284C52.7539 39.4384 52.401 39.3751 52.0311 39.3751H50.6249H48.1442C46.3049 39.3751 44.4627 38.9406 42.816 38.1165L42.5192 37.9689H42.1874C40.9456 37.9689 39.8389 38.5187 39.0655 39.3751V39.3751ZM52.0311 42.1876C52.806 42.1876 53.4374 42.819 53.4374 43.5939C53.4374 44.3687 52.806 45.0001 52.0311 45.0001V42.1876ZM40.7811 45.0001V42.1876C40.7811 41.5042 41.2719 40.9318 41.9188 40.8067C43.8594 41.7109 46.0039 42.1876 48.1442 42.1876H49.2186V45.0001C49.2186 47.326 47.3258 49.2189 44.9999 49.2189C42.6739 49.2189 40.7811 47.326 40.7811 45.0001V45.0001ZM42.8356 51.6545C43.5219 51.8795 44.2405 52.0314 44.9999 52.0314C45.7606 52.0314 46.4792 51.8795 47.1655 51.6545C47.3385 51.9512 47.541 52.2282 47.766 52.4884C47.5452 53.8215 46.3949 54.8439 44.9999 54.8439C43.6077 54.8439 42.4574 53.8257 42.2352 52.4968C42.4588 52.2353 42.6613 51.9554 42.8356 51.6545V51.6545ZM4.44643 40.7814C6.41518 21.676 21.6758 6.41542 40.7811 4.44667V22.9107C31.7544 24.632 24.6317 31.7546 22.9105 40.7814H4.44643ZM40.7811 85.5535C21.6758 83.5848 6.41518 68.3242 4.44643 49.2189H22.9105C24.6317 58.2456 31.7544 65.3682 40.7811 67.0895V85.5535ZM31.0049 58.8264C31.2608 57.0784 32.556 55.6679 34.3208 55.3107L39.5141 54.2574C39.6125 54.2293 39.7025 54.1885 39.7981 54.1548C40.6377 56.2051 42.65 57.6564 44.9999 57.6564C47.3469 57.6564 49.3592 56.2079 50.2002 54.1435C50.331 54.1899 50.4575 54.2448 50.5939 54.2828L55.6789 55.3107C57.4438 55.6665 58.7389 57.0784 58.9949 58.8249C55.4244 62.4404 50.4716 64.6876 44.9999 64.6876C39.5281 64.6876 34.5753 62.4404 31.0049 58.8264V58.8264ZM85.5533 49.2189C83.5846 68.3242 68.3239 83.5848 49.2186 85.5535V67.0895C58.2453 65.3682 65.368 58.2456 67.0892 49.2189H85.5533Z" fill="#E44918" fill-opacity="0.3"/>
<path d="M25.3125 15.6727V12.6562H22.5V15.6727C20.8758 16.1873 19.6875 17.6906 19.6875 19.4822C19.6875 21.0108 20.5369 22.3875 21.9066 23.0723L24.6487 24.442C25.058 24.6473 25.3125 25.0594 25.3125 25.5178C25.3125 26.1802 24.7739 26.7188 24.1116 26.7188H23.7009C23.0386 26.7188 22.5 26.1802 22.5 25.5178V25.3125H19.6875V25.5178C19.6875 27.3094 20.8758 28.8127 22.5 29.3273V32.3438H25.3125V29.3273C26.9367 28.8127 28.125 27.3094 28.125 25.5178C28.125 23.9892 27.2756 22.6125 25.9059 21.9277L23.1638 20.558C22.7545 20.3527 22.5 19.9406 22.5 19.4822C22.5 18.8198 23.0386 18.2812 23.7009 18.2812H24.1116C24.7739 18.2812 25.3125 18.8198 25.3125 19.4822V19.6875H28.125V19.4822C28.125 17.6906 26.9367 16.1873 25.3125 15.6727Z" fill="#E44918" fill-opacity="0.3"/>
<path d="M60.8669 72.1306L69.3029 63.6947L71.2913 65.6831L62.8554 74.1191L60.8669 72.1306Z" fill="#E44918" fill-opacity="0.3"/>
<path d="M70.3125 73.125C71.0892 73.125 71.7188 72.4954 71.7188 71.7188C71.7188 70.9421 71.0892 70.3125 70.3125 70.3125C69.5358 70.3125 68.9062 70.9421 68.9062 71.7188C68.9062 72.4954 69.5358 73.125 70.3125 73.125Z" fill="#E44918" fill-opacity="0.3"/>
<path d="M61.875 67.5C62.6517 67.5 63.2812 66.8704 63.2812 66.0938C63.2812 65.3171 62.6517 64.6875 61.875 64.6875C61.0983 64.6875 60.4688 65.3171 60.4688 66.0938C60.4688 66.8704 61.0983 67.5 61.875 67.5Z" fill="#E44918" fill-opacity="0.3"/>
<path d="M19.1221 51.6797L16.3982 52.3814C18.5596 60.7795 24.2873 67.7756 32.1116 71.5767L33.3407 69.0469C26.2602 65.6086 21.0782 59.2777 19.1221 51.6797V51.6797Z" fill="#E44918" fill-opacity="0.3"/>
<path d="M38.3201 70.878C37.4201 70.646 36.5215 70.3634 35.6483 70.0371L34.6653 72.6724C35.63 73.0324 36.6228 73.3446 37.6184 73.602L38.3201 70.878Z" fill="#E44918" fill-opacity="0.3"/>
<path d="M11.9247 51.7515L9.16846 52.3098C11.6224 64.3979 20.3088 74.6705 31.8372 79.1199L32.8497 76.4958C22.2072 72.3896 14.1888 62.9072 11.9247 51.7515V51.7515Z" fill="#E44918" fill-opacity="0.3"/>
<path d="M34.7285 80.1001C35.6974 80.3828 36.693 80.6289 37.6873 80.8314L38.247 78.0751C37.3287 77.8895 36.4104 77.6617 35.5174 77.4001L34.7285 80.1001Z" fill="#E44918" fill-opacity="0.3"/>
</svg>
