<svg width="90" height="90" viewBox="0 0 90 90" fill="none" xmlns="http://www.w3.org/2000/svg">
<path d="M63.2812 60.4688C68.7094 60.4688 73.125 56.0531 73.125 50.625C73.125 45.1969 68.7094 40.7812 63.2812 40.7812C57.8531 40.7812 53.4375 45.1969 53.4375 50.625C53.4375 56.0531 57.8531 60.4688 63.2812 60.4688ZM63.2812 43.5938C67.1583 43.5938 70.3125 46.748 70.3125 50.625C70.3125 54.502 67.1583 57.6562 63.2812 57.6562C59.4042 57.6562 56.25 54.502 56.25 50.625C56.25 46.748 59.4042 43.5938 63.2812 43.5938Z" fill="#E44918" fill-opacity="0.3"/>
<path d="M63.2812 54.8438C65.6072 54.8438 67.5 52.9509 67.5 50.625C67.5 48.2991 65.6072 46.4062 63.2812 46.4062C60.9553 46.4062 59.0625 48.2991 59.0625 50.625C59.0625 52.9509 60.9553 54.8438 63.2812 54.8438ZM63.2812 49.2188C64.0561 49.2188 64.6875 49.8502 64.6875 50.625C64.6875 51.3998 64.0561 52.0312 63.2812 52.0312C62.5064 52.0312 61.875 51.3998 61.875 50.625C61.875 49.8502 62.5064 49.2188 63.2812 49.2188Z" fill="#E44918" fill-opacity="0.3"/>
<path d="M71.8833 73.2656L72.8494 71.7188H88.9031L87.0623 62.5191L78.5883 55.4583C78.6839 54.4092 78.75 53.3573 78.75 52.2984C78.75 52.2084 78.7416 52.1213 78.7402 52.0312H78.75V5.625C78.75 3.29906 76.8572 1.40625 74.5312 1.40625H5.625C3.29906 1.40625 1.40625 3.29906 1.40625 5.625V64.6875C1.40625 67.0134 3.29906 68.9062 5.625 68.9062H38.2219L37.6594 71.7188H53.7131L54.6792 73.2656L54.1336 74.6311C52.7189 78.1664 53.858 82.2305 56.9039 84.5142L59.5659 86.5111L62.2589 81.1266C63.8269 82.7662 64.6875 84.9108 64.6875 87.1875V88.5938H68.175L70.515 85.6687C73.118 82.4147 73.7733 77.9906 72.2264 74.122L71.8833 73.2656ZM57.0291 71.7188L55.4864 69.2508C54.848 68.2298 54.2883 67.1723 53.7722 66.0938H72.7889C72.2728 67.1709 71.7131 68.2298 71.0747 69.2508L69.5334 71.7188H57.0291ZM54.0337 37.9688H72.5288C74.7563 42.4027 75.9375 47.2837 75.9375 52.2984C75.9375 56.0672 75.2738 59.7797 73.9927 63.2812H52.5698C51.2887 59.7797 50.625 56.0672 50.625 52.2984C50.625 47.2837 51.8062 42.4027 54.0337 37.9688V37.9688ZM55.627 35.1562C55.7536 34.958 55.8661 34.7513 55.9969 34.5544L60.0778 28.4316C60.7936 27.36 61.9917 26.7188 63.2812 26.7188C64.5708 26.7188 65.7689 27.36 66.4833 28.433L70.5642 34.5558C70.695 34.7527 70.8075 34.958 70.9341 35.1577H55.627V35.1562ZM84.5002 64.0434L85.4719 68.9062H74.52C76.2539 65.7155 77.4633 62.2856 78.1313 58.7363L84.5002 64.0434ZM5.625 4.21875H74.5312C75.3061 4.21875 75.9375 4.85016 75.9375 5.625V18.2812H4.21875V5.625C4.21875 4.85016 4.85016 4.21875 5.625 4.21875ZM38.7844 66.0938H5.625C4.85016 66.0938 4.21875 65.4623 4.21875 64.6875V21.0938H75.9375V38.6423C75.1008 36.6848 74.1023 34.7892 72.9056 32.9934L68.8247 26.8706C67.5858 25.0158 65.5144 23.9062 63.2812 23.9062C61.0481 23.9062 58.9767 25.0158 57.7392 26.872L53.6583 32.9948C49.8333 38.7309 47.8125 45.405 47.8125 52.2984C47.8125 53.3573 47.8786 54.4092 47.9742 55.4569L39.5002 62.5177L38.7844 66.0938ZM42.0623 64.0434L48.4312 58.7363C49.0992 62.2856 50.3086 65.7155 52.0425 68.9062H41.0906L42.0623 64.0434ZM68.3198 83.9123L67.3242 85.1555C66.9164 82.8323 65.8083 80.6934 64.1053 78.9905L61.4911 76.3763L58.5605 82.2389C56.5552 80.7117 55.8084 78.0187 56.7464 75.6745L57.202 74.5312H69.3605L69.615 75.1683C70.7864 78.0975 70.29 81.4472 68.3198 83.9123V83.9123Z" fill="#E44918" fill-opacity="0.3"/>
<path d="M15.4688 7.03125H7.03125V15.4688H15.4688V7.03125ZM12.6562 12.6562H9.84375V9.84375H12.6562V12.6562Z" fill="#E44918" fill-opacity="0.3"/>
<path d="M26.7188 7.03125H18.2812V15.4688H26.7188V7.03125ZM23.9062 12.6562H21.0938V9.84375H23.9062V12.6562Z" fill="#E44918" fill-opacity="0.3"/>
<path d="M37.9688 7.03125H29.5312V15.4688H37.9688V7.03125ZM35.1562 12.6562H32.3438V9.84375H35.1562V12.6562Z" fill="#E44918" fill-opacity="0.3"/>
<path d="M40.7812 23.9062H32.3438V52.0312H29.5312V35.1562H21.0938V52.0312H18.2812V40.7812H9.84375V52.0312H7.03125V54.8438H43.5938V52.0312H40.7812V23.9062ZM35.1562 26.7188H37.9688V52.0312H35.1562V26.7188ZM23.9062 37.9688H26.7188V52.0312H23.9062V37.9688ZM12.6562 43.5938H15.4688V52.0312H12.6562V43.5938Z" fill="#E44918" fill-opacity="0.3"/>
<path d="M7.03125 23.9062H9.84375V26.7188H7.03125V23.9062Z" fill="#E44918" fill-opacity="0.3"/>
<path d="M12.6562 23.9062H26.7188V26.7188H12.6562V23.9062Z" fill="#E44918" fill-opacity="0.3"/>
<path d="M7.03125 29.5312H9.84375V32.3438H7.03125V29.5312Z" fill="#E44918" fill-opacity="0.3"/>
<path d="M12.6562 29.5312H26.7188V32.3438H12.6562V29.5312Z" fill="#E44918" fill-opacity="0.3"/>
</svg>
