<svg width="88" height="70" viewBox="0 0 88 70" fill="none" xmlns="http://www.w3.org/2000/svg">
<g id="Logo">
<circle id="red" cx="54.086" cy="33.914" r="33.914" fill="#BD241F"/>
<circle id="black" cx="33.914" cy="33.914" r="33.914" fill="black"/>
<path id="label" d="M16.2871 32.8571H14.9248V27.5661H13.1802V26.4323H18.0317V27.5661H16.2871V32.8571ZM21.6133 32.945C21.0361 32.945 20.5835 32.7356 20.2554 32.3166H20.1851C20.2319 32.7268 20.2554 32.9641 20.2554 33.0285V35.0193H18.915V27.9441H20.0049L20.1938 28.5813H20.2554C20.5688 28.0949 21.0332 27.8518 21.6484 27.8518C22.2285 27.8518 22.6826 28.0759 23.0107 28.5241C23.3389 28.9724 23.5029 29.5949 23.5029 30.3918C23.5029 30.9162 23.4253 31.3718 23.27 31.7585C23.1177 32.1452 22.8994 32.4397 22.6152 32.6418C22.3311 32.844 21.9971 32.945 21.6133 32.945ZM21.2178 28.924C20.8867 28.924 20.645 29.0266 20.4927 29.2317C20.3403 29.4338 20.2612 29.7693 20.2554 30.238V30.383C20.2554 30.9104 20.333 31.2883 20.4883 31.5168C20.6465 31.7453 20.8955 31.8596 21.2354 31.8596C21.8359 31.8596 22.1362 31.3645 22.1362 30.3742C22.1362 29.8908 22.0615 29.529 21.9121 29.2888C21.7656 29.0456 21.5342 28.924 21.2178 28.924ZM27.7305 32.8571L27.4712 32.1892H27.436C27.2104 32.4734 26.9775 32.6711 26.7373 32.7824C26.5 32.8908 26.1895 32.945 25.8057 32.945C25.334 32.945 24.9619 32.8103 24.6895 32.5407C24.4199 32.2712 24.2852 31.8874 24.2852 31.3894C24.2852 30.8679 24.4668 30.4841 24.8301 30.238C25.1963 29.989 25.7471 29.8513 26.4824 29.8249L27.335 29.7986V29.5832C27.335 29.0852 27.0801 28.8362 26.5703 28.8362C26.1777 28.8362 25.7163 28.9548 25.186 29.1921L24.7422 28.2868C25.3076 27.9909 25.9346 27.843 26.623 27.843C27.2822 27.843 27.7876 27.9865 28.1392 28.2737C28.4907 28.5608 28.6665 28.9973 28.6665 29.5832V32.8571H27.7305ZM27.335 30.5808L26.8164 30.5984C26.4268 30.6101 26.1367 30.6804 25.9463 30.8093C25.7559 30.9382 25.6606 31.1345 25.6606 31.3982C25.6606 31.7761 25.8774 31.9651 26.311 31.9651C26.6216 31.9651 26.8691 31.8757 27.0537 31.697C27.2412 31.5183 27.335 31.281 27.335 30.9851V30.5808ZM32.0854 28.8054C31.8013 28.8054 31.5786 28.8962 31.4175 29.0779C31.2563 29.2566 31.1641 29.5114 31.1406 29.8425H33.0215C33.0156 29.5114 32.9292 29.2566 32.7622 29.0779C32.5952 28.8962 32.3696 28.8054 32.0854 28.8054ZM32.2744 32.945C31.4834 32.945 30.8652 32.7268 30.4199 32.2903C29.9746 31.8537 29.752 31.2356 29.752 30.4358C29.752 29.6125 29.957 28.9768 30.3672 28.5285C30.7803 28.0774 31.3501 27.8518 32.0767 27.8518C32.771 27.8518 33.3115 28.0495 33.6982 28.445C34.085 28.8405 34.2783 29.3869 34.2783 30.0842V30.7346H31.1099C31.1245 31.1154 31.2373 31.4128 31.4482 31.6267C31.6592 31.8405 31.9551 31.9475 32.3359 31.9475C32.6318 31.9475 32.9116 31.9167 33.1753 31.8552C33.439 31.7937 33.7144 31.6955 34.0015 31.5608V32.5979C33.7671 32.7151 33.5166 32.8015 33.25 32.8571C32.9834 32.9157 32.6582 32.945 32.2744 32.945ZM38.5894 27.9441H40.0659L38.1191 30.2995L40.2373 32.8571H38.7168L36.7085 30.3654V32.8571H35.3682V27.9441H36.7085V30.3303L38.5894 27.9441ZM45.0054 27.9441V28.9504H43.397V32.8571H42.0566V28.9504H40.4438V27.9441H45.0054ZM46.9917 30.3918C46.9917 30.8781 47.0708 31.2458 47.229 31.4948C47.3901 31.7439 47.6509 31.8684 48.0112 31.8684C48.3687 31.8684 48.625 31.7453 48.7803 31.4992C48.9385 31.2502 49.0176 30.8811 49.0176 30.3918C49.0176 29.9055 48.9385 29.5407 48.7803 29.2976C48.6221 29.0544 48.3628 28.9328 48.0024 28.9328C47.645 28.9328 47.3872 29.0544 47.229 29.2976C47.0708 29.5378 46.9917 29.9026 46.9917 30.3918ZM50.3887 30.3918C50.3887 31.1916 50.1777 31.8171 49.7559 32.2683C49.334 32.7195 48.7466 32.945 47.9937 32.945C47.522 32.945 47.106 32.8425 46.7456 32.6374C46.3853 32.4294 46.1084 32.132 45.915 31.7453C45.7217 31.3586 45.625 30.9074 45.625 30.3918C45.625 29.5891 45.8345 28.9651 46.2534 28.5197C46.6724 28.0744 47.2612 27.8518 48.02 27.8518C48.4917 27.8518 48.9077 27.9543 49.2681 28.1594C49.6284 28.3645 49.9053 28.6589 50.0986 29.0427C50.292 29.4265 50.3887 29.8762 50.3887 30.3918ZM54.1943 32.945C53.6172 32.945 53.1646 32.7356 52.8364 32.3166H52.7661C52.813 32.7268 52.8364 32.9641 52.8364 33.0285V35.0193H51.4961V27.9441H52.5859L52.7749 28.5813H52.8364C53.1499 28.0949 53.6143 27.8518 54.2295 27.8518C54.8096 27.8518 55.2637 28.0759 55.5918 28.5241C55.9199 28.9724 56.084 29.5949 56.084 30.3918C56.084 30.9162 56.0063 31.3718 55.8511 31.7585C55.6987 32.1452 55.4805 32.4397 55.1963 32.6418C54.9121 32.844 54.5781 32.945 54.1943 32.945ZM53.7988 28.924C53.4678 28.924 53.2261 29.0266 53.0737 29.2317C52.9214 29.4338 52.8423 29.7693 52.8364 30.238V30.383C52.8364 30.9104 52.9141 31.2883 53.0693 31.5168C53.2275 31.7453 53.4766 31.8596 53.8164 31.8596C54.417 31.8596 54.7173 31.3645 54.7173 30.3742C54.7173 29.8908 54.6426 29.529 54.4932 29.2888C54.3467 29.0456 54.1152 28.924 53.7988 28.924ZM58.4878 27.9441V29.8864C58.4878 30.0915 58.4541 30.5925 58.3867 31.3894L60.6543 27.9441H62.2671V32.8571H60.9707V30.8972C60.9707 30.5486 61 30.0564 61.0586 29.4206L58.7998 32.8571H57.1914V27.9441H58.4878ZM64.4248 32.8571H62.9746L64.2974 30.9148C63.981 30.7829 63.7407 30.5925 63.5767 30.3435C63.4155 30.0945 63.335 29.8015 63.335 29.4646C63.335 28.99 63.5122 28.6179 63.8667 28.3484C64.2241 28.0788 64.7104 27.9441 65.3257 27.9441H67.6108V32.8571H66.2705V31.029H65.5322L64.4248 32.8571ZM64.6489 29.4734C64.6489 29.6784 64.7295 29.8396 64.8906 29.9568C65.0518 30.071 65.2627 30.1281 65.5234 30.1281H66.2705V28.8889H65.3521C65.1323 28.8889 64.9595 28.9431 64.8335 29.0515C64.7104 29.157 64.6489 29.2976 64.6489 29.4734ZM13.8086 38.4323H15.8081C16.7192 38.4323 17.3799 38.5627 17.79 38.8235C18.2031 39.0813 18.4097 39.4929 18.4097 40.0583C18.4097 40.4421 18.3188 40.757 18.1372 41.0031C17.9585 41.2492 17.7197 41.3972 17.4209 41.447V41.4909C17.8281 41.5818 18.1211 41.7517 18.2998 42.0007C18.4814 42.2497 18.5723 42.5808 18.5723 42.9939C18.5723 43.5798 18.3599 44.0368 17.9351 44.365C17.5132 44.6931 16.939 44.8571 16.2124 44.8571H13.8086V38.4323ZM15.1709 40.9768H15.9619C16.3311 40.9768 16.5977 40.9196 16.7617 40.8054C16.9287 40.6911 17.0122 40.5022 17.0122 40.2385C17.0122 39.9924 16.9214 39.8166 16.7397 39.7112C16.561 39.6028 16.2769 39.5486 15.8872 39.5486H15.1709V40.9768ZM15.1709 42.0578V43.7321H16.0586C16.4336 43.7321 16.7104 43.6604 16.8892 43.5168C17.0679 43.3733 17.1572 43.1535 17.1572 42.8576C17.1572 42.3244 16.7764 42.0578 16.0146 42.0578H15.1709ZM22.4482 44.945C21.8711 44.945 21.4185 44.7356 21.0903 44.3166H21.02C21.0669 44.7268 21.0903 44.9641 21.0903 45.0285V47.0193H19.75V39.9441H20.8398L21.0288 40.5813H21.0903C21.4038 40.0949 21.8682 39.8518 22.4834 39.8518C23.0635 39.8518 23.5176 40.0759 23.8457 40.5241C24.1738 40.9724 24.3379 41.5949 24.3379 42.3918C24.3379 42.9162 24.2603 43.3718 24.105 43.7585C23.9526 44.1452 23.7344 44.4397 23.4502 44.6418C23.166 44.844 22.832 44.945 22.4482 44.945ZM22.0527 40.924C21.7217 40.924 21.48 41.0266 21.3276 41.2317C21.1753 41.4338 21.0962 41.7693 21.0903 42.238V42.383C21.0903 42.9104 21.168 43.2883 21.3232 43.5168C21.4814 43.7453 21.7305 43.8596 22.0703 43.8596C22.6709 43.8596 22.9712 43.3645 22.9712 42.3742C22.9712 41.8908 22.8965 41.529 22.7471 41.2888C22.6006 41.0456 22.3691 40.924 22.0527 40.924ZM27.48 40.8054C27.1958 40.8054 26.9731 40.8962 26.812 41.0779C26.6509 41.2566 26.5586 41.5114 26.5352 41.8425H28.416C28.4102 41.5114 28.3237 41.2566 28.1567 41.0779C27.9897 40.8962 27.7642 40.8054 27.48 40.8054ZM27.6689 44.945C26.8779 44.945 26.2598 44.7268 25.8145 44.2903C25.3691 43.8537 25.1465 43.2356 25.1465 42.4358C25.1465 41.6125 25.3516 40.9768 25.7617 40.5285C26.1748 40.0774 26.7446 39.8518 27.4712 39.8518C28.1655 39.8518 28.7061 40.0495 29.0928 40.445C29.4795 40.8405 29.6729 41.3869 29.6729 42.0842V42.7346H26.5044C26.519 43.1154 26.6318 43.4128 26.8428 43.6267C27.0537 43.8405 27.3496 43.9475 27.7305 43.9475C28.0264 43.9475 28.3062 43.9167 28.5698 43.8552C28.8335 43.7937 29.1089 43.6955 29.396 43.5608V44.5979C29.1616 44.7151 28.9111 44.8015 28.6445 44.8571C28.3779 44.9157 28.0527 44.945 27.6689 44.945ZM36.9546 44.8571H35.7021V40.9856L35.6318 41.258C35.4736 41.8762 35.3315 42.3435 35.2056 42.6599L34.3354 44.8571H33.3818L32.4985 42.6423C32.3726 42.32 32.2378 41.8674 32.0942 41.2844L32.0107 40.9856V44.8571H30.7627V39.9441H32.6084L33.4521 42.0403C33.54 42.2658 33.6206 42.5251 33.6938 42.8181C33.77 43.1111 33.8213 43.3615 33.8477 43.5695C33.9443 43.1301 34.019 42.8152 34.0718 42.6247C34.1274 42.4314 34.1875 42.2541 34.252 42.093C34.3164 41.9319 34.6079 41.2155 35.1265 39.9441H36.9546V44.8571ZM40.3999 40.8054C40.1157 40.8054 39.8931 40.8962 39.7319 41.0779C39.5708 41.2566 39.4785 41.5114 39.4551 41.8425H41.3359C41.3301 41.5114 41.2437 41.2566 41.0767 41.0779C40.9097 40.8962 40.6841 40.8054 40.3999 40.8054ZM40.5889 44.945C39.7979 44.945 39.1797 44.7268 38.7344 44.2903C38.2891 43.8537 38.0664 43.2356 38.0664 42.4358C38.0664 41.6125 38.2715 40.9768 38.6816 40.5285C39.0947 40.0774 39.6646 39.8518 40.3911 39.8518C41.0854 39.8518 41.626 40.0495 42.0127 40.445C42.3994 40.8405 42.5928 41.3869 42.5928 42.0842V42.7346H39.4243C39.439 43.1154 39.5518 43.4128 39.7627 43.6267C39.9736 43.8405 40.2695 43.9475 40.6504 43.9475C40.9463 43.9475 41.2261 43.9167 41.4897 43.8552C41.7534 43.7937 42.0288 43.6955 42.3159 43.5608V44.5979C42.0815 44.7151 41.8311 44.8015 41.5645 44.8571C41.2979 44.9157 40.9727 44.945 40.5889 44.945ZM45.0229 39.9441V41.8337H46.895V39.9441H48.2354V44.8571H46.895V42.8313H45.0229V44.8571H43.6826V39.9441H45.0229ZM50.938 39.9441V41.8864C50.938 42.0915 50.9043 42.5925 50.8369 43.3894L53.1045 39.9441H54.7173V44.8571H53.4209V42.8972C53.4209 42.5486 53.4502 42.0564 53.5088 41.4206L51.25 44.8571H49.6416V39.9441H50.938Z" fill="white"/>
</g>
</svg>
