<?xml version="1.0" encoding="utf-8"?>
<!-- Generator: Adobe Illustrator 23.0.0, SVG Export Plug-In . SVG Version: 6.00 Build 0)  -->
<svg version="1.1" xmlns="http://www.w3.org/2000/svg" xmlns:xlink="http://www.w3.org/1999/xlink" x="0px" y="0px"
	 viewBox="0 0 188 188" style="enable-background:new 0 0 188 188;" xml:space="preserve">
<style type="text/css">
	.st0{fill:none;stroke:#000000;stroke-width:5;}
	.st1{fill:#569589;}
	.st2{fill:#263238;}
</style>
<g id="Layer_1">
	<circle class="st0" cx="94" cy="94" r="91.5"/>
</g>
<g id="Layer_2">
	<g id="Classic_2_">
		<g id="Power-Ledger_2_" transform="translate(-5240.000000, -6869.000000)">
			<g transform="translate(5223.000000, 6839.000000)">
				<path id="Rectangle-21_2_" class="st1" d="M111,49.5l-73,73l73,73l73-73L111,49.5z M111,47.7l74.7,74.7L111,197.2l-74.7-74.7
					L111,47.7z"/>
				<path class="st1" d="M147.5,59.2L47.8,85.9l26.7,99.7l99.7-26.7L147.5,59.2z M148.4,57.7l27.4,102.1L73.6,187.2L46.3,85
					L148.4,57.7z"/>
				<path class="st1" d="M74.5,59.2l-26.7,99.7l99.7,26.7l26.7-99.7L74.5,59.2z M73.6,57.7L175.7,85l-27.4,102.1L46.3,159.8
					L73.6,57.7z"/>
				<path id="Triangle-3_2_" class="st1" d="M75,60.1L75,185l108.3-62.6L75,60.1z M185.8,122.4L73.7,187.2l0-129.3L185.8,122.4z"/>
				<path class="st1" d="M146.8,59.8L38.7,122.3L147,184.8L146.8,59.8z M148.3,187L36.2,122.3l111.9-64.6L148.3,187z"/>
				<path id="Path_2_" class="st1" d="M92.9,119.3l-15.7,59.1l23.7-40.1L92.9,119.3z M92.6,115.4l9.7,23L73.7,187L92.6,115.4z"/>
				<path class="st1" d="M75.9,62L73.7,58l0,0l3.2,3.2l2.3,4.1L75.9,62z M79.3,65.3l22.9,40.5l20.5,2.6L79.3,65.3z M126.1,110.1
					l-24.8-3.1L73.6,57.9L126.1,110.1z"/>
				<path class="st1" d="M145.8,61.9l2.3-3.9l0,0l-1.2,4.4l-2.4,4L145.8,61.9z M144.6,66.4L121,106.5l8,19L144.6,66.4z M129.2,129.4
					l-9.7-23l28.7-48.6L129.2,129.4z"/>
				<path class="st1" d="M180.9,122.4l4.5,0l0,0l-4.4,1.2l-4.7,0L180.9,122.4z M176.3,123.6l-46.6-0.4l-12.5,16.4L176.3,123.6z
					 M114.1,141.8l15.1-19.9l56.4,0.5L114.1,141.8z"/>
				<path class="st1" d="M142.6,179.6l-22.9-40.5l-20.5-2.6L142.6,179.6z M95.8,134.8l24.8,3.1l27.7,49.1L95.8,134.8z"/>
				<path class="st1" d="M45.5,121.3l46.6,0.4l12.5-16.4L45.5,121.3z M107.8,103.1L92.7,123l-56.4-0.5L107.8,103.1z"/>
				<path class="st1" d="M50.3,156.1l23.3-12.9v-22.1L50.3,156.1z M74.8,117v27l-28.5,15.8L74.8,117z"/>
				<path class="st1" d="M51.4,86.9l22.8,13.7l19.1-11L51.4,86.9z M97.6,88.6l-23.4,13.5L46.3,85.3L97.6,88.6z"/>
				<path class="st1" d="M111.9,53.2l-0.5,26.6l19.1,11L111.9,53.2z M133.5,94l-23.4-13.5l0.6-32.5L133.5,94z"/>
				<path class="st1" d="M172.9,86.5l2.1-1.2l0.1,0.1l-1.4,2l-2.4,1.3L172.9,86.5z M171.3,88.8l-23.3,12.9v22.1L171.3,88.8z
					 M146.8,127.9v-27l28.5-15.8L146.8,127.9z"/>
				<path class="st1" d="M173,158.2l2.1,1.3l0,0.1l-2.4-0.2l-2.4-1.4L173,158.2z M170.2,158l-22.8-13.7l-19.1,11L170.2,158z
					 M124.1,156.4l23.4-13.5l27.9,16.8L124.1,156.4z"/>
				<path class="st1" d="M89.1,152.9l-0.8-1.7l0.2-0.2l1.6,1l1,2L89.1,152.9z M109.7,191.7l0.5-26.6l-19.1-11L109.7,191.7z
					 M88.1,150.9l23.4,13.5l-0.6,32.5L88.1,150.9z"/>
			</g>
		</g>
	</g>
</g>
<g id="Layer_3">
	<g id="blockchain_data_1_">
		<g>
			<g>
				<g>
					<g>
						<path class="st2" d="M136.3,150.4h-32.2c-1.1,0-2-0.9-2-2v-32.2c0-1.1,0.9-2,2-2h32.2c1.1,0,2,0.9,2,2v32.2
							C138.3,149.5,137.4,150.4,136.3,150.4z M106.1,146.4h28.2v-28.2h-28.2V146.4z"/>
					</g>
				</g>
			</g>
			<g>
				<g>
					<g>
						<path class="st2" d="M71.8,150.4H39.6c-1.1,0-2-0.9-2-2v-32.2c0-1.1,0.9-2,2-2h32.2c1.1,0,2,0.9,2,2v32.2
							C73.9,149.5,73,150.4,71.8,150.4z M41.6,146.4h28.2v-28.2H41.6V146.4z"/>
					</g>
				</g>
			</g>
			<g>
				<g>
					<g>
						<path class="st2" d="M136.3,85.9h-32.2c-1.1,0-2-0.9-2-2V51.7c0-0.5,0.2-1,0.6-1.4l12.1-12.1c0.4-0.4,0.9-0.6,1.4-0.6h32.2
							c1.1,0,2,0.9,2,2v32.2c0,0.5-0.2,1-0.6,1.4l-12.1,12.1C137.3,85.7,136.8,85.9,136.3,85.9z M106.1,81.9h29.4L146.4,71V41.6H117
							l-10.9,10.9V81.9z"/>
					</g>
				</g>
			</g>
			<g>
				<g>
					<g>
						<path class="st2" d="M136.3,85.9h-32.2c-1.1,0-2-0.9-2-2V51.7c0-1.1,0.9-2,2-2h32.2c1.1,0,2,0.9,2,2v32.2
							C138.3,85,137.4,85.9,136.3,85.9z M106.1,81.9h28.2V53.7h-28.2V81.9z"/>
					</g>
				</g>
			</g>
			<g>
				<g>
					<g>
						<path class="st2" d="M71.8,85.9H39.6c-1.1,0-2-0.9-2-2V51.7c0-1.1,0.9-2,2-2h32.2c1.1,0,2,0.9,2,2v32.2
							C73.9,85,73,85.9,71.8,85.9z M41.6,81.9h28.2V53.7H41.6V81.9z"/>
					</g>
				</g>
			</g>
			<g>
				<g>
					<g>
						<path class="st2" d="M136.3,118.2c-0.5,0-1-0.2-1.4-0.6c-0.8-0.8-0.8-2.1,0-2.8l10.1-10.1c0.8-0.8,2.1-0.8,2.8,0
							c0.8,0.8,0.8,2.1,0,2.8l-10.1,10.1C137.3,118,136.8,118.2,136.3,118.2z"/>
					</g>
				</g>
			</g>
			<g>
				<g>
					<g>
						<path class="st2" d="M71.8,118.2c-0.5,0-1-0.2-1.4-0.6c-0.8-0.8-0.8-2.1,0-2.8l10.1-10.1c0.8-0.8,2.1-0.8,2.8,0
							c0.8,0.8,0.8,2.1,0,2.8l-10.1,10.1C72.9,118,72.4,118.2,71.8,118.2z"/>
					</g>
				</g>
			</g>
			<g>
				<g>
					<g>
						<path class="st2" d="M136.3,53.7c-0.5,0-1-0.2-1.4-0.6c-0.8-0.8-0.8-2.1,0-2.8l10.1-10.1c0.8-0.8,2.1-0.8,2.8,0
							c0.8,0.8,0.8,2.1,0,2.8l-10.1,10.1C137.3,53.5,136.8,53.7,136.3,53.7z"/>
					</g>
				</g>
			</g>
			<g>
				<g>
					<g>
						<path class="st2" d="M71.8,53.7c-0.5,0-1-0.2-1.4-0.6c-0.8-0.8-0.8-2.1,0-2.8l10.1-10.1c0.8-0.8,2.1-0.8,2.8,0
							c0.8,0.8,0.8,2.1,0,2.8L73.3,53.1C72.9,53.5,72.4,53.7,71.8,53.7z"/>
					</g>
				</g>
			</g>
			<g>
				<g>
					<g>
						<path class="st2" d="M102.1,130.3H79.9c-1.1,0-2-0.9-2-2c0-1.1,0.9-2,2-2h22.2c1.1,0,2,0.9,2,2
							C104.1,129.4,103.2,130.3,102.1,130.3z"/>
					</g>
				</g>
			</g>
			<g>
				<g>
					<g>
						<path class="st2" d="M102.1,65.8H79.9c-1.1,0-2-0.9-2-2s0.9-2,2-2h22.2c1.1,0,2,0.9,2,2S103.2,65.8,102.1,65.8z"/>
					</g>
				</g>
			</g>
			<g>
				<g>
					<path class="st2" d="M104.1,150.4c-1.1,0-2-0.9-2-2v-32.2c0-0.5,0.2-1,0.6-1.4l12.1-12.1c0.8-0.8,2.1-0.8,2.8,0s0.8,2.1,0,2.8
						L106.1,117v29.4h29.4l10.9-10.9v-29.4h-14.1c-1.1,0-2-0.9-2-2l0,0c0-1.1,0.9-2,2-2h16.1c1.1,0,2,0.9,2,2v32.2
						c0,0.5-0.2,1-0.6,1.4l-12.1,12.1c-0.4,0.4-0.9,0.6-1.4,0.6H104.1z"/>
				</g>
			</g>
			<g>
				<g>
					<g>
						<path class="st2" d="M124.2,110.1c-1.1,0-2-0.9-2-2V85.9c0-1.1,0.9-2,2-2c1.1,0,2,0.9,2,2v22.2
							C126.2,109.2,125.3,110.1,124.2,110.1z"/>
					</g>
				</g>
			</g>
			<g>
				<g>
					<g>
						<path class="st2" d="M59.8,110.1c-1.1,0-2-0.9-2-2V85.9c0-1.1,0.9-2,2-2s2,0.9,2,2v22.2C61.8,109.2,60.9,110.1,59.8,110.1z"/>
					</g>
				</g>
			</g>
			<g>
				<g>
					<path class="st2" d="M39.6,85.9c-1.1,0-2-0.9-2-2V51.7c0-0.5,0.2-1,0.6-1.4l12.1-12.1c0.4-0.4,0.9-0.6,1.4-0.6h32.2
						c1.1,0,2,0.9,2,2v16.1c0,1.1-0.9,2-2,2l0,0c-1.1,0-2-0.9-2-2V41.6H52.5L41.6,52.5v29.4H71l11.5-11.5c0.8-0.8,2.1-0.8,2.8,0
						s0.8,2.1,0,2.8L73.3,85.4c-0.4,0.4-0.9,0.6-1.4,0.6H39.6z"/>
				</g>
			</g>
			<g>
				<path class="st2" d="M71.8,150.4H39.6c-1.1,0-2-0.9-2-2v-32.2c0-0.5,0.2-1,0.6-1.4l12.1-12.1c0.8-0.8,2.1-0.8,2.8,0
					c0.8,0.8,0.8,2.1,0,2.8L41.6,117v29.4H71l11.5-11.5c0.8-0.8,2.1-0.8,2.8,0s0.8,2.1,0,2.8l-12.1,12.1
					C72.9,150.2,72.4,150.4,71.8,150.4z"/>
			</g>
			<g>
				<g>
					<path class="st2" d="M81.9,120.2v-14.1H67.8c-1.1,0-2-0.9-2-2l0,0c0-1.1,0.9-2,2-2h16.1c1.1,0,2,0.9,2,2v16.1c0,1.1-0.9,2-2,2
						l0,0C82.8,122.2,81.9,121.3,81.9,120.2z"/>
				</g>
			</g>
		</g>
	</g>
</g>
</svg>
