<svg width="188" height="188" viewBox="0 0 188 188" fill="none" xmlns="http://www.w3.org/2000/svg">
<g clip-path="url(#clip0)">
<path d="M86.8661 46.4385H82V51.4994H86.8661V46.4385Z" fill="black"/>
<path d="M52.6082 36.667V68.9396C51.2067 68.5502 49.7663 68.3556 48.2869 68.3556H48.1702C39.4502 68.4723 32.2093 75.402 31.664 84.1999C31.5473 85.8349 31.7031 87.4699 32.0921 89.1051C26.9144 90.8959 23.333 95.8396 23.333 101.601C23.333 108.959 28.861 114.292 36.491 114.292H52.6078V154H140.666V36.667H52.6082ZM57.6691 41.7279H135.606V53.7572H57.6691V41.7279ZM36.4914 109.193C31.664 109.193 28.3939 106.117 28.3939 101.562C28.3939 97.3579 31.4694 93.8544 35.5957 93.4648L39.0603 93.1534L37.6979 89.9611C36.9195 88.2094 36.6078 86.3406 36.7245 84.5497C37.0747 78.5157 42.2526 73.5325 48.2088 73.4548H48.2865C53.6978 73.4548 58.486 77.3479 59.6149 82.6422L60.7438 87.7809L64.0528 83.7324C65.5711 81.9028 67.7901 80.8518 70.1258 80.8518C70.3984 80.8518 70.6707 80.8518 70.9042 80.8908C73.824 81.2022 76.3932 83.2657 77.4445 86.2242C77.9894 87.7425 78.0285 89.2606 77.6004 90.9347L77.0164 93.1537L79.1963 93.9321C82.3495 95.1001 84.4518 98.1366 84.4518 101.562C84.4518 106.117 81.1818 109.193 76.3543 109.193L36.4914 109.193ZM57.6691 148.94V134.458H135.606V148.94H57.6691ZM135.606 129.397H135.606H57.6691V114.292H76.3552C83.9856 114.292 89.5132 108.959 89.5132 101.601C89.5132 96.813 86.944 92.4139 82.8954 90.117C83.0899 88.1706 82.8563 86.263 82.1946 84.4721C80.4817 79.6838 76.2383 76.2969 71.3722 75.8297C68.4916 75.5571 65.6107 76.2578 63.2362 77.7761C61.9514 75.1677 60.0051 72.9487 57.6693 71.3137V58.8172H135.606V129.397Z" fill="black"/>
<path d="M124.745 108.18L118.71 114.214V92.8809H113.65V114.214L107.615 108.18L104.034 111.762L116.18 123.907L128.326 111.762L124.745 108.18Z" fill="black"/>
<path d="M103.957 68.2773L91.8105 80.4234L95.3919 84.0051L101.426 77.9708V99.3044H106.487V77.9708L112.521 84.0051L116.103 80.4234L103.957 68.2773Z" fill="black"/>
</g>
<circle cx="94" cy="94" r="91.5" stroke="black" stroke-width="5"/>
<defs>
<clipPath id="clip0">
<rect width="117.333" height="117.333" fill="white" transform="translate(23.333 36.667)"/>
</clipPath>
</defs>
</svg>