<?xml version="1.0" encoding="utf-8"?>
<!-- Generator: Adobe Illustrator 23.0.0, SVG Export Plug-In . SVG Version: 6.00 Build 0)  -->
<svg version="1.1" id="Layer_1" xmlns="http://www.w3.org/2000/svg" xmlns:xlink="http://www.w3.org/1999/xlink" x="0px" y="0px"
	 viewBox="0 0 188 188" style="enable-background:new 0 0 188 188;" xml:space="preserve">
<style type="text/css">
	.st0{clip-path:url(#SVGID_2_);}
	.st1{fill:none;stroke:#000000;stroke-width:5;}
</style>
<g>
	<defs>
		<rect id="SVGID_1_" x="23.3" y="36.7" width="117.3" height="117.3"/>
	</defs>
	<clipPath id="SVGID_2_">
		<use xlink:href="#SVGID_1_"  style="overflow:visible;"/>
	</clipPath>
	<g class="st0">
		<path d="M86.9,46.4H82v5.1h4.9V46.4z"/>
		<path d="M52.6,36.7v32.3c-1.4-0.4-2.8-0.6-4.3-0.6h-0.1c-8.7,0.1-16,7-16.5,15.8c-0.1,1.6,0,3.3,0.4,4.9
			c-5.2,1.8-8.8,6.7-8.8,12.5c0,7.4,5.5,12.7,13.2,12.7h16.1V154h88.1V36.7H52.6z M57.7,41.7h77.9v12H57.7V41.7z M36.5,109.2
			c-4.8,0-8.1-3.1-8.1-7.6c0-4.2,3.1-7.7,7.2-8.1l3.5-0.3L37.7,90c-0.8-1.8-1.1-3.6-1-5.4c0.4-6,5.5-11,11.5-11.1h0.1
			c5.4,0,10.2,3.9,11.3,9.2l1.1,5.1l3.3-4c1.5-1.8,3.7-2.9,6.1-2.9c0.3,0,0.5,0,0.8,0c2.9,0.3,5.5,2.4,6.5,5.3
			c0.5,1.5,0.6,3,0.2,4.7L77,93.2l2.2,0.8c3.2,1.2,5.3,4.2,5.3,7.6c0,4.6-3.3,7.6-8.1,7.6H36.5z M57.7,148.9v-14.5h77.9v14.5H57.7z
			 M135.6,129.4L135.6,129.4H57.7v-15.1h18.7c7.6,0,13.2-5.3,13.2-12.7c0-4.8-2.6-9.2-6.6-11.5c0.2-1.9,0-3.9-0.7-5.6
			c-1.7-4.8-6-8.2-10.8-8.6c-2.9-0.3-5.8,0.4-8.1,1.9c-1.3-2.6-3.2-4.8-5.6-6.5V58.8h77.9V129.4z"/>
		<path d="M94.8,87.5v1.3c0,0.3,0.3,0.6,0.6,0.6c0.3,0,0.6-0.3,0.6-0.6v-1.3c0-0.3-0.3-0.6-0.6-0.6C95,86.9,94.8,87.1,94.8,87.5z"/>
		<path d="M94.8,90.8v6c0,0.3,0.3,0.6,0.6,0.6c0.3,0,0.6-0.3,0.6-0.6v-6c0-0.3-0.3-0.6-0.6-0.6C95,90.2,94.8,90.5,94.8,90.8z"/>
		<path d="M123.7,102.7c4.5,0,8.2-3.7,8.2-8.2c0-4.5-3.7-8.2-8.2-8.2s-8.2,3.7-8.2,8.2c0,0,0,0,0,0
			C115.5,99,119.1,102.7,123.7,102.7z M119.4,90.2c0.2-0.2,0.2-0.6,0-0.8l-0.3-0.3c1.1-1,2.5-1.5,4-1.7v0.5c0,0.3,0.3,0.6,0.6,0.6
			s0.6-0.3,0.6-0.6v-0.5c1.5,0.1,2.9,0.7,4,1.7l-0.3,0.3c-0.2,0.2-0.2,0.6,0,0.8c0.2,0.2,0.6,0.2,0.8,0l0.3-0.3c1,1.1,1.5,2.5,1.7,4
			h-0.5c-0.3,0-0.6,0.3-0.6,0.6s0.3,0.6,0.6,0.6h0.5c-0.1,1.5-0.7,2.9-1.7,4l-0.3-0.3c-0.2-0.2-0.6-0.2-0.8,0
			c-0.2,0.2-0.2,0.6,0,0.8c0,0,0,0,0,0l0.3,0.3c-1.1,1-2.5,1.5-4,1.7V101c0-0.3-0.3-0.6-0.6-0.6s-0.6,0.3-0.6,0.6v0.5
			c-1.5-0.1-2.9-0.7-4-1.7l0.3-0.3c0.2-0.2,0.2-0.6,0-0.8c-0.2-0.2-0.6-0.2-0.8,0c0,0,0,0,0,0l-0.3,0.3c-2.2-2.6-2.2-6.5,0-9.1
			l0.3,0.3C118.8,90.5,119.2,90.5,119.4,90.2C119.4,90.2,119.4,90.2,119.4,90.2z"/>
		<path d="M120.6,94.5c0,1,0.8,1.8,1.8,1.8c0.8,0,1.4-0.5,1.7-1.2h2.5c0.3,0,0.6-0.3,0.6-0.6s-0.3-0.6-0.6-0.6H124
			c-0.3-0.9-1.3-1.4-2.3-1.1C121.1,93,120.6,93.7,120.6,94.5L120.6,94.5z M123,94.5c0,0.4-0.3,0.6-0.6,0.6c-0.4,0-0.6-0.3-0.6-0.6
			c0-0.4,0.3-0.6,0.6-0.6c0,0,0,0,0,0C122.7,93.8,123,94.1,123,94.5L123,94.5z"/>
		<path d="M108.3,115.1V111c0-0.8-0.7-1.5-1.5-1.5h-0.6v-7.7h3.3c0.3,0,0.6-0.3,0.6-0.6v-4.3h3.4c1.4,5.6,7,9,12.5,7.6s9-7,7.6-12.5
			c-1.4-5.6-7-9-12.5-7.6c-3.8,0.9-6.7,3.9-7.6,7.6h-3.4v-4.3c0-0.3-0.3-0.6-0.6-0.6h-3.3v-7.7h0.6c0.8,0,1.5-0.7,1.5-1.5v-4.1
			c0-0.8-0.7-1.5-1.5-1.5H91.4c-0.8,0-1.5,0.7-1.5,1.5V78c0,0.8,0.7,1.5,1.5,1.5H92v30h-0.6c-0.8,0-1.5,0.7-1.5,1.5v4.1
			c0,0.8,0.7,1.5,1.5,1.5h15.4C107.7,116.6,108.3,115.9,108.3,115.1z M91.4,78.4c-0.2,0-0.4-0.2-0.4-0.4v-4.1c0-0.2,0.2-0.4,0.4-0.4
			h4v4.9H91.4z M96.5,78.4v-4.9h5.3v4.9H96.5z M102.9,78.4v-4.9h4c0.2,0,0.4,0.2,0.4,0.4V78c0,0.2-0.2,0.4-0.4,0.4H102.9z M109,98.8
			v1.9h-2.7v-1.9H109z M109,97.6h-2.7v-2.5h2.7V97.6z M110.1,93.2h3.2c-0.1,0.9-0.1,1.8,0,2.6h-3.2L110.1,93.2z M123.7,85.2
			c5.1,0,9.3,4.1,9.3,9.3c0,5.1-4.1,9.3-9.3,9.3c-5.1,0-9.3-4.1-9.3-9.3c0,0,0,0,0,0C114.4,89.4,118.5,85.2,123.7,85.2L123.7,85.2z
			 M109,91.3V94h-2.7v-2.6H109z M109,88.3v1.9h-2.7v-1.9H109z M93.1,83.4v-3.9h12.1v3.9H93.1z M93.1,104.5v-20h12.1v20H93.1z
			 M93.1,109.5v-3.9h12.1v3.9H93.1z M91.4,115.5c-0.2,0-0.4-0.2-0.4-0.4V111c0-0.2,0.2-0.4,0.4-0.4h4v4.9H91.4z M96.5,115.5v-4.9
			h5.3v4.9H96.5z M102.9,115.5v-4.9h4c0.2,0,0.4,0.2,0.4,0.4v4.1c0,0.2-0.2,0.4-0.4,0.4H102.9z"/>
	</g>
</g>
<circle class="st1" cx="94" cy="94" r="91.5"/>
</svg>
