<?xml version="1.0" encoding="utf-8"?>
<!-- Generator: Adobe Illustrator 23.0.0, SVG Export Plug-In . SVG Version: 6.00 Build 0)  -->
<svg version="1.1" id="Layer_1" xmlns="http://www.w3.org/2000/svg" xmlns:xlink="http://www.w3.org/1999/xlink" x="0px" y="0px"
	 viewBox="0 0 188 188" style="enable-background:new 0 0 188 188;" xml:space="preserve">
<style type="text/css">
	.st0{clip-path:url(#SVGID_2_);}
	.st1{fill:none;stroke:#000000;stroke-width:5;}
</style>
<g>
	<defs>
		<rect id="SVGID_1_" x="23.3" y="36.7" width="117.3" height="117.3"/>
	</defs>
	<clipPath id="SVGID_2_">
		<use xlink:href="#SVGID_1_"  style="overflow:visible;"/>
	</clipPath>
	<g class="st0">
		<path d="M86.9,46.4H82v5.1h4.9V46.4z"/>
		<path d="M52.6,36.7v32.3c-1.4-0.4-2.8-0.6-4.3-0.6h-0.1c-8.7,0.1-16,7-16.5,15.8c-0.1,1.6,0,3.3,0.4,4.9
			c-5.2,1.8-8.8,6.7-8.8,12.5c0,7.4,5.5,12.7,13.2,12.7h16.1V154h88.1V36.7H52.6z M57.7,41.7h77.9v12H57.7V41.7z M36.5,109.2
			c-4.8,0-8.1-3.1-8.1-7.6c0-4.2,3.1-7.7,7.2-8.1l3.5-0.3L37.7,90c-0.8-1.8-1.1-3.6-1-5.4c0.4-6,5.5-11,11.5-11.1h0.1
			c5.4,0,10.2,3.9,11.3,9.2l1.1,5.1l3.3-4c1.5-1.8,3.7-2.9,6.1-2.9c0.3,0,0.5,0,0.8,0c2.9,0.3,5.5,2.4,6.5,5.3
			c0.5,1.5,0.6,3,0.2,4.7L77,93.2l2.2,0.8c3.2,1.2,5.3,4.2,5.3,7.6c0,4.6-3.3,7.6-8.1,7.6H36.5z M57.7,148.9v-14.5h77.9v14.5H57.7z
			 M135.6,129.4L135.6,129.4H57.7v-15.1h18.7c7.6,0,13.2-5.3,13.2-12.7c0-4.8-2.6-9.2-6.6-11.5c0.2-1.9,0-3.9-0.7-5.6
			c-1.7-4.8-6-8.2-10.8-8.6c-2.9-0.3-5.8,0.4-8.1,1.9c-1.3-2.6-3.2-4.8-5.6-6.5V58.8h77.9V129.4z"/>
		<g>
			<g>
				<polygon points="131.5,85.9 113.9,85.9 123.2,69.7 102.1,69.7 92.8,96.4 107.8,96.4 101.2,120.9 				"/>
			</g>
		</g>
	</g>
</g>
<circle class="st1" cx="94" cy="94" r="91.5"/>
</svg>
