<svg width="188" height="188" viewBox="0 0 188 188" fill="none" xmlns="http://www.w3.org/2000/svg">
<g clip-path="url(#clip0)">
<path d="M86.8661 46.4385H82V51.4994H86.8661V46.4385Z" fill="#BD241F"/>
<path d="M52.6092 36.667V68.9396C51.2077 68.5502 49.7673 68.3556 48.2879 68.3556H48.1712C39.4512 68.4723 32.2103 75.402 31.665 84.1999C31.5483 85.8349 31.704 87.4699 32.0931 89.1051C26.9154 90.8959 23.334 95.8396 23.334 101.601C23.334 108.959 28.862 114.292 36.492 114.292H52.6088V154H140.667V36.667H52.6092ZM57.6701 41.7279H135.607V53.7572H57.6701V41.7279ZM36.4923 109.193C31.665 109.193 28.3949 106.117 28.3949 101.562C28.3949 97.3579 31.4704 93.8544 35.5967 93.4648L39.0613 93.1534L37.6989 89.9611C36.9204 88.2094 36.6088 86.3406 36.7255 84.5497C37.0757 78.5157 42.2535 73.5325 48.2098 73.4548H48.2874C53.6988 73.4548 58.487 77.3479 59.6159 82.6422L60.7448 87.7809L64.0538 83.7324C65.5721 81.9028 67.7911 80.8518 70.1268 80.8518C70.3994 80.8518 70.6717 80.8518 70.9052 80.8908C73.825 81.2022 76.3942 83.2657 77.4455 86.2242C77.9904 87.7425 78.0294 89.2606 77.6013 90.9347L77.0174 93.1537L79.1973 93.9321C82.3505 95.1001 84.4527 98.1366 84.4527 101.562C84.4527 106.117 81.1827 109.193 76.3553 109.193L36.4923 109.193ZM57.6701 148.94V134.458H135.607V148.94H57.6701ZM135.607 129.397H135.607H57.6701V114.292H76.3562C83.9865 114.292 89.5142 108.959 89.5142 101.601C89.5142 96.813 86.945 92.4139 82.8963 90.117C83.0909 88.1706 82.8573 86.263 82.1955 84.4721C80.4827 79.6838 76.2393 76.2969 71.3732 75.8297C68.4926 75.5571 65.6117 76.2578 63.2372 77.7761C61.9524 75.1677 60.0061 72.9487 57.6703 71.3137V58.8172H135.607V129.397Z" fill="#BD241F"/>
<path d="M124.746 108.18L118.711 114.214V92.8809H113.651V114.214L107.616 108.18L104.035 111.762L116.181 123.907L128.327 111.762L124.746 108.18Z" fill="#BD241F"/>
<path d="M103.957 68.2773L91.8105 80.4234L95.3919 84.0051L101.426 77.9708V99.3044H106.487V77.9708L112.521 84.0051L116.103 80.4234L103.957 68.2773Z" fill="#BD241F"/>
</g>
<circle cx="94" cy="94" r="91.5" stroke="#BD241F" stroke-width="5"/>
<defs>
<clipPath id="clip0">
<rect width="117.333" height="117.333" fill="white" transform="translate(23.334 36.667)"/>
</clipPath>
</defs>
</svg>
