<svg width="300" height="300" viewBox="0 0 300 300" fill="none" xmlns="http://www.w3.org/2000/svg">
<path d="M80.2528 188.809C83.0543 187.193 84.0133 183.606 82.3974 180.805C80.7792 178.006 77.1949 177.044 74.3934 178.66C71.5919 180.279 70.6306 183.865 72.2488 186.664C73.8647 189.466 77.4512 190.427 80.2528 188.809Z" fill="black"/>
<path d="M56.2407 229.25L85.7482 280.362C92.1157 291.403 106.439 295.491 117.766 288.942C128.975 282.465 132.827 268.144 126.343 256.926L108.765 226.476L123.987 217.687C126.789 216.066 127.75 212.484 126.132 209.683L118.513 196.486C119.421 196.309 125.395 195.138 230.743 174.472C243.766 173.765 251.569 159.521 244.99 148.134L225.517 114.406L237.961 95.5579C239.184 93.704 239.257 91.3213 238.147 89.3987L226.428 69.1014C225.318 67.1788 223.21 66.0527 221.001 66.1832L198.459 67.5359L176.841 30.0908C173.71 24.6663 168.1 21.3819 161.838 21.304C161.762 21.3018 161.689 21.3018 161.613 21.3018C155.562 21.3018 150.069 24.3138 146.814 29.4065L70.2712 126.915L20.51 155.644C0.938322 166.939 -5.84116 192.048 5.49765 211.672C15.8568 229.616 37.6967 236.675 56.2407 229.25ZM116.196 262.788C119.433 268.387 117.517 275.551 111.903 278.794C106.27 282.051 99.0966 280.05 95.8968 274.505L66.5999 223.755L86.8972 212.036C120.804 270.772 115.652 261.847 116.196 262.788ZM102.905 216.325L97.0458 206.176L107.194 200.317L113.054 210.466L102.905 216.325ZM218.09 78.0965L226.188 92.1224L218.967 103.058L205.009 78.8816L218.09 78.0965ZM156.615 35.8312C158.187 33.2585 160.682 32.993 161.693 33.0205C162.694 33.032 165.186 33.3432 166.69 35.9479L234.842 153.994C237.062 157.837 234.363 162.668 229.912 162.778C229.113 162.797 228.744 162.941 226.698 163.323L154.607 38.4565C156.12 36.511 156.315 36.3233 156.615 35.8312ZM146.809 48.3899L214.542 165.708L112.319 185.758L81.2369 131.923L146.809 48.3899ZM15.6463 205.813C13.0736 201.361 11.7141 196.307 11.7141 191.194C11.7141 180.743 17.3308 171.011 26.3694 165.793L72.0382 139.425L101.335 190.169L55.6663 216.538C41.6747 224.613 23.7235 219.802 15.6463 205.813Z" fill="black"/>
<path d="M62.0999 192.524C60.4817 189.723 56.8974 188.761 54.0959 190.38L43.9473 196.239C41.1503 197.855 37.5592 196.891 35.9433 194.094C34.3251 191.293 30.7408 190.332 27.9393 191.95C25.1378 193.568 24.1765 197.152 25.7947 199.954C30.6172 208.308 41.3746 211.254 49.8066 206.388L59.9553 200.528C62.7568 198.91 63.7181 195.328 62.0999 192.524Z" fill="black"/>
<path d="M291.291 33.836L258.641 52.0047C255.815 53.5794 254.796 57.1476 256.371 59.9743C257.941 62.7987 261.507 63.8218 264.34 62.2448L296.988 44.0762C299.817 42.5015 300.833 38.9332 299.259 36.1065C297.686 33.2775 294.118 32.2613 291.291 33.836Z" fill="black"/>
<path d="M287.867 94.5215L265.228 88.4561C262.102 87.6184 258.888 89.4724 258.051 92.5989C257.213 95.7254 259.069 98.9366 262.196 99.7743L284.837 105.84C287.982 106.684 291.179 104.801 292.012 101.697C292.85 98.5704 290.994 95.3569 287.867 94.5215Z" fill="black"/>
<path d="M230.976 12.5471L224.903 35.1881C224.066 38.3146 225.92 41.5259 229.046 42.3658C232.17 43.2013 235.384 41.3519 236.224 38.2231L242.294 15.5821C243.132 12.4556 241.278 9.24208 238.151 8.40437C235.027 7.56666 231.813 9.4206 230.976 12.5471Z" fill="black"/>
</svg>
